<?xml version="1.0" encoding="UTF-8"?>
<svg width="21px" height="21px" viewBox="0 0 21 21" version="1.1" xmlns="http://www.w3.org/2000/svg" xmlns:xlink="http://www.w3.org/1999/xlink">
    <!-- Generator: sketchtool 52.4 (67378) - http://www.bohemiancoding.com/sketch -->
    <title>CC65C9D3-2019-46D2-93BB-C83C64453107</title>
    <desc>Created with sketchtool.</desc>
    <g id="Page-1" stroke="none" stroke-width="1" fill="none" fill-rule="evenodd">
        <g id="02-Onboarding---Upload-2-of-3-Writer" transform="translate(-228.000000, -771.000000)">
            <g id="Ui/file-upload-Copy-7" transform="translate(222.000000, 766.500000)">
                <g id="icon/spin-black" transform="translate(2.000000, -0.500000)">
                    <circle id="Oval-3" fill="#3454F6" fill-rule="nonzero" cx="14.5" cy="15.40625" r="9.96875"></circle>
                    <path d="M12.1774249,17.8510174 L19.3104063,10.4954074 C19.5842406,10.2130264 20.0351423,10.2060979 20.3175233,10.4799323 C20.3225677,10.484824 20.3275394,10.4897901 20.3324368,10.4948289 L20.3324368,10.4948289 C20.6171512,10.7877653 20.6171512,11.2540504 20.3324368,11.5469868 L12.1774249,19.9375 L8.66337185,16.3219678 C8.38031139,16.0307331 8.3783342,15.5677641 8.65889686,15.2741223 L8.65889686,15.2741223 C8.92641342,14.9941348 9.37025315,14.9840252 9.65024063,15.2515417 C9.65649443,15.257517 9.66263712,15.2636074 9.66866556,15.2698099 L12.1774249,17.8510174 Z" id="check---material" fill="#FFFFFF"></path>
                </g>
            </g>
        </g>
    </g>
</svg>