<?xml version="1.0" encoding="UTF-8"?>
<svg width="16px" height="5px" viewBox="0 0 166 40" version="1.1" xmlns="http://www.w3.org/2000/svg" xmlns:xlink="http://www.w3.org/1999/xlink">
    <!-- Generator: sketchtool 54.1 (76490) - https://sketchapp.com -->
    <title>C85BB366-9C98-4A25-8DD2-61A9D38F8162</title>
    <desc>Created with sketchtool.</desc>
    <g id="UI-UX-Screens" stroke="none" stroke-width="1" fill="none" fill-rule="evenodd">
        <g id="#1---Sign-In--filled-error" transform="translate(-60.000000, -27.000000)">
            <g id="entandem_tagline_logo_sign-in" transform="translate(60.000000, 27.000000)">
                <g id="entandem_tagline_logo">
                    <path d="M165.474684,19.8842105 C165.483194,21.2357203 164.677161,22.4589004 163.433334,22.98202 C162.189507,23.5051395 160.753564,23.2248734 159.796684,22.2722218 C158.839804,21.3195701 158.550988,19.8826982 159.065231,18.6332192 C159.579475,17.3837402 160.795207,16.568448 162.144177,16.5684211 C163.024697,16.5656249 163.870262,16.9133962 164.494854,17.5352283 C165.119446,18.1570604 165.471901,19.0020154 165.474684,19.8842105" id="Path" fill="#ED212A"></path>
                    <path d="M6.66101266,3.30526316 C6.67378792,4.65768993 5.87048611,5.88408201 4.62702726,6.41052642 C3.38356841,6.93697082 1.94591946,6.65933228 0.986854981,5.70753691 C0.0277905003,4.75574155 -0.262978237,3.31806274 0.250619407,2.06728902 C0.764217051,0.816515298 1.98058701,6.0567107e-05 3.33050633,-2.05330951e-16 C5.16001322,-0.00583727633 6.64944272,1.47230327 6.66101266,3.30526316" id="Path" fill="#ED212A"></path>
                    <path d="M16.2848101,8.83157895 C16.2975854,10.1840057 15.4942836,11.4103978 14.2508247,11.9368422 C13.0073659,12.4632866 11.5697169,12.1856481 10.6106524,11.2338527 C9.65158797,10.2820573 9.36081923,8.84437852 9.87441687,7.59360481 C10.3880145,6.34283109 11.6043845,5.52637636 12.9543038,5.52631579 C14.7838107,5.52047851 16.2732402,6.99861906 16.2848101,8.83157895" id="Path" fill="#ED212A"></path>
                    <path d="M25.9086076,14.3578947 C25.9213829,15.7103215 25.118081,16.9367136 23.8746222,17.463158 C22.6311633,17.9896024 21.1935144,17.7119639 20.2344499,16.7601685 C19.2753854,15.8083731 18.9846167,14.3706943 19.4982143,13.1199206 C20.011812,11.8691469 21.2281819,11.0526921 22.5781013,11.0526316 C23.4576507,11.047032 24.3032456,11.3924549 24.9281435,12.0126164 C25.5530414,12.6327779 25.9058331,13.4766587 25.9086076,14.3578947" id="Path" fill="#ED212A"></path>
                    <path d="M16.2848101,19.8842105 C16.293321,21.2357203 15.4872875,22.4589004 14.2434606,22.98202 C12.9996337,23.5051395 11.5636908,23.2248734 10.6068108,22.2722218 C9.6499309,21.3195701 9.36111439,19.8826982 9.87535802,18.6332192 C10.3896016,17.3837402 11.6053333,16.568448 12.9543038,16.5684211 C13.8348239,16.5656249 14.6803883,16.9133962 15.3049804,17.5352283 C15.9295725,18.1570604 16.2820281,19.0020154 16.2848101,19.8842105" id="Path" fill="#ED212A"></path>
                    <path d="M6.66101266,25.4 C6.67805827,26.7533274 5.87750311,27.982924 4.63442508,28.5126964 C3.39134704,29.0424689 1.95199902,28.7674697 0.99074757,27.816542 C0.0294961215,26.8656144 -0.263235512,25.4271364 0.24970395,24.175067 C0.762643412,22.9229976 1.97964102,22.1053709 3.33050633,22.1052632 C5.16001322,22.0994259 6.64944272,23.5775664 6.66101266,25.4105263" id="Path" fill="#ED212A"></path>
                    <path d="M6.66101266,14.3578947 C6.66952351,15.7094045 5.86349005,16.9325846 4.61966314,17.4557042 C3.37583622,17.9788238 1.9398933,17.6985576 0.983013367,16.745906 C0.0261334346,15.7932543 -0.262683075,14.3563824 0.251560549,13.1069034 C0.765804174,11.8574244 1.98153587,11.0421322 3.33050633,11.0421053 C4.21102641,11.0393091 5.05659087,11.3870804 5.68118293,12.0089125 C6.30577498,12.6307446 6.65823061,13.4756996 6.66101266,14.3578947" id="Path" fill="#F9A577"></path>
                    <path d="M25.9086076,25.4 C25.9256532,26.7533274 25.1250981,27.982924 23.88202,28.5126964 C22.638942,29.0424689 21.199594,28.7674697 20.2383425,27.816542 C19.2770911,26.8656144 18.9843594,25.4271364 19.4972989,24.175067 C20.0102383,22.9229976 21.227236,22.1053709 22.5781013,22.1052632 C24.4076082,22.0994259 25.8970377,23.5775664 25.9086076,25.4105263" id="Path" fill="#F9A577"></path>
                    <path d="M16.2848101,30.9263158 C16.2975854,32.2787426 15.4942836,33.5051346 14.2508247,34.031579 C13.0073659,34.5580235 11.5697169,34.2803849 10.6106524,33.3285895 C9.65158797,32.3767942 9.36081923,30.9391154 9.87441687,29.6883416 C10.3880145,28.4375679 11.6043845,27.6211132 12.9543038,27.6210526 C14.7838107,27.6152154 16.2732402,29.0933559 16.2848101,30.9263158" id="Path" fill="#F9A577"></path>
                    <path d="M6.66101266,36.4526316 C6.65823814,37.3338677 6.30544642,38.1777484 5.68054856,38.7979099 C5.05565071,39.4180715 4.2100558,39.7634943 3.33050633,39.7578947 C1.50852593,39.7578947 0.0315189873,38.278078 0.0315189873,36.4526316 C0.0315189873,34.6271851 1.50852593,33.1473684 3.33050633,33.1473684 C4.2100558,33.1417689 5.05565071,33.4871917 5.68054856,34.1073532 C6.30544642,34.7275147 6.65823814,35.5713955 6.66101266,36.4526316" id="Path" fill="#F9A577"></path>
                    <path d="M37.9383544,12.7894737 C34.5553165,12.7894737 32.6851899,16.0947368 32.1913924,18.5368421 L32.7692405,18.5368421 C35.0070886,18.5368421 40.1236709,17.9894737 40.1236709,14.7263158 C40.1236709,13.5157895 39.3567089,12.7894737 38.0224051,12.7894737 M42.5926582,14.3157895 C42.5926582,19.5157895 36.1732911,20.3157895 32.8217722,20.3157895 C32.4960759,20.3157895 32.2124051,20.3157895 31.9602532,20.3157895 C31.9602532,20.6947368 31.8972152,21.0421053 31.8972152,21.3684211 C31.8972152,23.5894737 32.8217722,25.5789474 35.721519,25.5789474 C37.2835965,25.5311699 38.7967835,25.0221527 40.0711392,24.1157895 L40.9011392,25.8 C39.2607025,26.9424375 37.3095758,27.5524059 35.3117722,27.5473684 C31.1092405,27.5473684 29.4387342,24.9789474 29.4387342,21.2947368 C29.4387342,15.7368421 32.9163291,10.8842105 38.4111392,10.8842105 C41.0902532,10.8842105 42.6136709,12.2210526 42.6136709,14.2842105" id="Shape" fill="#211E1E" fill-rule="nonzero"></path>
                    <path d="M43.2755696,27.1368421 L45.6710127,13.7368421 L45.8916456,11.3578947 L48.0664557,11.3578947 L47.9298734,13.6842105 C49.3116372,11.9680258 51.3818408,10.9540866 53.5822785,10.9157895 C56.3664557,10.9157895 57.8373418,12.2210526 57.8688608,14.7894737 C57.851126,15.4287466 57.7843895,16.0657092 57.6692405,16.6947368 L55.7886076,27.1368421 L53.2670886,27.1368421 L55.0216456,17.1368421 C55.1224011,16.5491435 55.1751077,15.9541856 55.1792405,15.3578947 C55.1792405,13.9578947 54.6434177,12.8842105 52.7837975,12.8842105 C50.3633525,12.8736154 48.2400674,14.4993754 47.6146835,16.8421053 L45.7655696,27.1894737 L43.2755696,27.1368421 Z" id="Path" fill="#211E1E"></path>
                    <path d="M65.9167089,5.07368421 L64.7925316,11.3894737 L69.3417722,11.3894737 L68.953038,13.4947368 L64.4143038,13.4947368 L62.7543038,22.8947368 C62.6812024,23.2911013 62.635566,23.6920591 62.6177215,24.0947368 C62.6177215,25.4315789 63.2901266,25.6210526 64.3827848,25.6210526 C65.3245836,25.56809 66.2414483,25.2979109 67.0618987,24.8315789 L67.7343038,26.5473684 C66.5394086,27.2376451 65.1842294,27.6006817 63.8049367,27.6 C60.9577215,27.6 60.1277215,26.3263158 60.0962025,24.7789474 C60.1009106,24.117983 60.1677459,23.4589321 60.2958228,22.8105263 L63.4477215,5.09473684 L65.9167089,5.07368421 Z" id="Path" fill="#211E1E"></path>
                    <path d="M81.4555696,13.3578947 C80.4927911,12.9812698 79.4624,12.8092112 78.4297468,12.8526316 C73.1765823,12.8526316 71.7897468,18.1157895 71.7897468,21.6105263 C71.7897468,23.7157895 72.5462025,25.7052632 75.1412658,25.7052632 C77.4636513,25.7587048 79.4925829,24.142215 79.9636709,21.8631579 L81.4555696,13.3578947 Z M81.9493671,24.3684211 L81.7287342,27.1368421 L79.5118987,27.1368421 L79.6694937,25.2631579 L79.5434177,25.2631579 C78.3892715,26.7697335 76.5843628,27.6308489 74.6894937,27.5789474 C71.3379747,27.5789474 69.2892405,25.7052632 69.2892405,21.8947368 C69.2892405,15.5789474 72.6827848,10.9473684 78.8079747,10.9473684 C80.6457433,10.9760454 82.463719,11.3324904 84.1767089,12 L81.9493671,24.3684211 Z" id="Shape" fill="#211E1E" fill-rule="nonzero"></path>
                    <path d="M85.5110127,27.1368421 L87.9064557,13.7368421 L88.1270886,11.3578947 L90.3544304,11.3578947 L90.1758228,13.6842105 C91.5577259,11.9909917 93.6139365,10.9936615 95.7967089,10.9578947 C98.5703797,10.9578947 99.9992405,12.2631579 100.072785,14.8315789 C100.053581,15.47027 99.9903926,16.106871 99.8836709,16.7368421 L98.003038,27.1789474 L95.513038,27.1789474 L97.2675949,17.1789474 C97.3683504,16.5912488 97.4210571,15.9962909 97.4251899,15.4 C97.4251899,14 96.8788608,12.9263158 95.0297468,12.9263158 C92.6212586,12.9106052 90.5019089,14.5160888 89.8606329,16.8421053 L88.0010127,27.1894737 L85.5110127,27.1368421 Z" id="Path" fill="#211E1E"></path>
                    <path d="M114.245823,13.5157895 C113.402178,13.1043327 112.473327,12.8987309 111.53519,12.9157895 C106.87038,12.9157895 104.664051,16.7263158 104.664051,21.3368421 C104.664051,23.6842105 105.494051,25.6526316 107.952532,25.6526316 C110.220852,25.7016008 112.221727,24.1729768 112.774937,21.9684211 L114.245823,13.5157895 Z M114.592532,11.4842105 L115.779747,5.07368421 L118.238228,5.07368421 L114.823671,24.2736842 L114.518987,27.1368421 L112.291646,27.1368421 L112.417722,25.2631579 L112.291646,25.2631579 C111.054002,26.8038277 109.180433,27.6919754 107.206582,27.6736842 C103.476835,27.6736842 102.100506,24.9789474 102.100506,21.7368421 C102.100506,15.5157895 105.452025,10.9789474 111.262025,10.9789474 C112.382432,10.9801586 113.494464,11.1723757 114.550506,11.5473684 L114.592532,11.4842105 Z" id="Shape" fill="#211E1E" fill-rule="nonzero"></path>
                    <path d="M127.210633,12.7894737 C123.827595,12.7894737 121.957468,16.0947368 121.463671,18.5368421 L122.031013,18.5368421 C124.268861,18.5368421 129.385443,17.9894737 129.385443,14.7263158 C129.385443,13.5157895 128.618481,12.7894737 127.284177,12.7894737 M131.843924,14.3157895 C131.843924,19.5157895 125.435063,20.3157895 122.073038,20.3157895 C121.757848,20.3157895 121.474177,20.3157895 121.211519,20.3157895 C121.211519,20.6947368 121.148481,21.0421053 121.148481,21.3684211 C121.148481,23.5894737 122.073038,25.5789474 124.983291,25.5789474 C126.506455,25.5225235 127.980705,25.0252972 129.227848,24.1473684 L130.057848,25.8315789 C128.418319,26.975874 126.466593,27.5860298 124.468481,27.5789474 C120.318481,27.5789474 118.595443,25.0105263 118.595443,21.3263158 C118.595443,15.7684211 122.073038,10.9157895 127.567848,10.9157895 C130.257468,10.9157895 131.77038,12.2526316 131.77038,14.3157895" id="Shape" fill="#211E1E" fill-rule="nonzero"></path>
                    <path d="M132.316709,27.1368421 L134.680633,13.7368421 L134.869747,11.3578947 L136.971013,11.3578947 L136.844937,13.6105263 C138.143709,11.9605305 140.106581,10.9733717 142.203165,10.9157895 C144.30443,10.9157895 145.754304,11.7684211 146.258608,13.8315789 C147.493466,12.0221789 149.534186,10.9330353 151.721899,10.9157895 C154.527089,10.9157895 155.92443,12.3473684 155.92443,14.9473684 C155.917458,15.5225837 155.864759,16.0963283 155.766835,16.6631579 L153.917722,27.1894737 L151.427722,27.1894737 L153.182278,17.2210526 C153.288385,16.6759827 153.351618,16.1234078 153.371392,15.5684211 C153.371392,14.0736842 152.825063,12.9368421 150.912911,12.9368421 C148.657757,13.0605363 146.747703,14.6453088 146.206076,16.8421053 L144.388481,27.1263158 L141.898481,27.1263158 L143.684557,17.1894737 C143.790921,16.5918875 143.843664,15.9859592 143.842152,15.3789474 C143.946059,14.6897219 143.717815,13.9919377 143.226904,13.498017 C142.735992,13.0040963 142.0405,12.7724824 141.352152,12.8736842 C139.018102,12.9754697 137.052138,14.6544905 136.582278,16.9473684 L134.827722,27.1368421 L132.316709,27.1368421 Z" id="Path" fill="#211E1E"></path>
                    <text id="A-R" fill="#000101" font-family="Poppins-Regular, Poppins" font-size="7.52849987" font-weight="normal">
                        <tspan x="29.0079747" y="34.8526316">A R</tspan>
                    </text>
                    <text id="E:SO" fill="#000101" font-family="Poppins-Regular, Poppins" font-size="7.52849987" font-weight="normal">
                        <tspan x="40.5018987" y="34.8526316">E:SO</tspan>
                    </text>
                    <text id="UND-and" fill="#000101" font-family="Poppins-Regular, Poppins" font-size="7.52849987" font-weight="normal">
                        <tspan x="55.8516456" y="34.8526316">UND and</tspan>
                    </text>
                    <text id="SO" fill="#000101" font-family="Poppins-Regular, Poppins" font-size="7.52849987" font-weight="normal">
                        <tspan x="90.2598734" y="34.8526316">SO</tspan>
                    </text>
                    <text id="CA" fill="#000101" font-family="Poppins-Regular, Poppins" font-size="7.52849987" font-weight="normal">
                        <tspan x="100.408987" y="34.8526316">CA</tspan>
                    </text>
                    <text id="N" fill="#000101" font-family="Poppins-Regular, Poppins" font-size="7.52849987" font-weight="normal">
                        <tspan x="110.831266" y="34.8526316">N</tspan>
                    </text>
                    <text id="Comp" fill="#000101" font-family="Poppins-Regular, Poppins" font-size="7.52849987" font-weight="normal">
                        <tspan x="118.049114" y="34.8526316">Comp</tspan>
                    </text>
                    <text id="an" fill="#000101" font-family="Poppins-Regular, Poppins" font-size="7.52849987" font-weight="normal">
                        <tspan x="141.278608" y="34.8526316">an</tspan>
                    </text>
                    <text id="y" fill="#000101" font-family="Poppins-Regular, Poppins" font-size="7.52849987" font-weight="normal">
                        <tspan x="150.870886" y="34.8526316">y</tspan>
                    </text>
                </g>
            </g>
        </g>
    </g>
</svg>
