<?xml version="1.0" encoding="UTF-8"?>
<svg width="181px" height="90px" viewBox="0 0 181 90" version="1.1" xmlns="http://www.w3.org/2000/svg" xmlns:xlink="http://www.w3.org/1999/xlink">
    <!-- Generator: sketchtool 57.1 (101010) - https://sketch.com -->
    <title>BF983922-A6D1-4846-9916-D8DD8C897210@2x</title>
    <desc>Created with sketchtool.</desc>
    <defs>
        <polygon id="path-1" points="0.735 0.1103 180.7209 0.1103 180.7209 89.842 0.735 89.842"></polygon>
    </defs>
    <g id="Page-1" stroke="none" stroke-width="1" fill="none" fill-rule="evenodd">
        <g id="00b---thank-you-pop-up" transform="translate(-630.000000, -298.000000)">
            <g id="Group-417" transform="translate(630.000000, 298.000000)">
                <path d="M165.2425,66.0131 C165.2625,64.4621 164.2025,62.8551 162.0095,62.8551 L157.2055,62.8551 L157.2055,69.1711 L161.8955,69.1711 C164.2025,69.1711 165.2245,67.8661 165.2425,66.0131" id="Fill-338" fill="#214168"></path>
                <g id="Group-342">
                    <mask id="mask-2" fill="white">
                        <use xlink:href="#path-1"></use>
                    </mask>
                    <g id="Clip-341"></g>
                    <path d="M166.6069,53.1063 C165.9509,53.8463 165.2159,54.5523 164.3979,55.2233 C163.5809,55.8943 162.7029,56.4633 161.7689,56.9273 C160.8319,57.3933 159.8949,57.6243 158.9599,57.6243 C157.8289,57.6243 156.8849,57.2663 156.1309,56.5503 C155.8269,56.2633 155.5459,55.9093 155.2759,55.5173 C154.9609,55.3533 154.6609,55.1613 154.3929,54.9073 C154.1219,54.6503 153.8699,54.3373 153.6259,53.9983 C153.3329,54.2853 153.0169,54.5753 152.6559,54.8693 C152.0549,55.3583 151.3979,55.8003 150.6869,56.1973 C149.9749,56.5923 149.2319,56.9163 148.4609,57.1683 C147.6879,57.4213 146.9159,57.5483 146.1439,57.5483 C145.3269,57.5483 144.5299,57.3813 143.7559,57.0453 C142.9799,56.7113 142.2959,56.2303 141.7009,55.6033 C141.5199,55.4123 141.3669,55.1903 141.2109,54.9703 C140.7619,54.6923 140.3469,54.3613 139.9699,53.9663 C139.6979,54.1413 139.4209,54.3183 139.1199,54.5033 C137.1479,55.7513 135.4679,56.6353 134.0859,57.1573 C132.7689,57.7013 131.5109,57.9733 130.3099,57.9733 C129.0859,57.9733 128.0859,57.6893 127.3159,57.1233 C126.8609,56.8123 126.4599,56.3583 126.1019,55.7933 C125.9189,55.6993 125.7409,55.5993 125.5779,55.4793 C124.7829,54.9353 124.1369,54.0043 123.6389,52.6883 C123.0349,51.1663 122.5569,49.4503 122.1879,47.5633 C121.7059,47.9063 121.2049,48.2773 120.6809,48.6853 L120.5789,48.7873 L117.8909,54.5033 C117.2549,55.8643 116.6999,56.7823 116.2239,57.2593 C115.7479,57.7343 115.1229,57.9733 114.3529,57.9733 C113.6039,57.9733 112.9919,57.7343 112.5149,57.2593 C112.1959,56.9833 111.9909,56.6343 111.8759,56.2283 C111.4549,56.1193 111.0849,55.9223 110.7779,55.6163 C110.2799,55.1843 110.0299,54.5933 110.0299,53.8463 C110.0299,53.3243 110.3359,52.4163 110.9459,51.1243 L115.5529,41.2423 C115.6029,41.1363 115.3489,40.7713 114.8989,40.2793 C113.3899,39.0033 111.4689,37.7063 110.0609,37.5293 C110.0589,37.5293 109.8559,37.8103 109.8559,37.8103 C110.3489,38.7973 110.7199,39.8403 110.9669,40.9373 C111.2139,42.0363 111.3369,43.2743 111.3369,44.6543 C111.3369,45.6583 111.2259,46.6703 111.0049,47.6913 C110.7829,48.7133 110.4649,49.7003 110.0479,50.6533 C109.6299,51.6073 109.1189,52.5003 108.5159,53.3353 C107.9109,54.1683 107.2219,54.8923 106.4469,55.5053 C105.6729,56.1193 104.8259,56.6033 103.9069,56.9613 C102.9869,57.3193 102.0079,57.4973 100.9709,57.4973 C99.4719,57.4973 98.1909,57.1703 97.1269,56.5143 C96.2949,55.9993 95.5879,55.3543 94.9899,54.5923 C94.7869,54.4503 94.5919,54.3003 94.4039,54.1423 C93.6829,54.7403 92.9239,55.2853 92.1229,55.7743 C91.2979,56.2773 90.3919,56.6923 89.4049,57.0133 C88.4159,57.3363 87.3019,57.4973 86.0599,57.4973 C85.4459,57.4973 84.9299,57.3013 84.5149,56.9093 C84.2029,56.6163 83.9359,56.2373 83.7139,55.7723 C83.3619,55.6823 83.0469,55.5193 82.7769,55.2653 C82.3589,54.8733 82.0229,54.3273 81.7679,53.6263 C81.5119,52.9263 81.3289,52.1013 81.2189,51.1493 C81.1079,50.1993 81.0529,49.1643 81.0529,48.0483 C81.0529,47.7293 81.0629,47.3923 81.0699,47.0623 L77.6579,55.6963 C77.2159,56.4073 76.7219,56.8853 76.1769,57.1293 C75.6329,57.3743 75.0029,57.4973 74.2879,57.4973 C73.7419,57.4973 73.3089,57.3523 72.9849,57.0623 C72.6619,56.7743 72.4119,56.4023 72.2319,55.9473 C72.2179,55.9093 72.2089,55.8663 72.1949,55.8283 C71.8139,55.7773 71.4969,55.6423 71.2479,55.4183 C70.9239,55.1313 70.6739,54.7583 70.4939,54.3043 C70.3159,53.8493 70.1969,53.3503 70.1379,52.8043 C70.0769,52.2603 70.0469,51.7303 70.0469,51.2193 C70.0469,50.9963 70.0649,50.6803 70.0989,50.2693 C70.1329,49.8593 70.1829,49.3883 70.2529,48.8583 C70.3199,48.3293 70.3959,47.7693 70.4819,47.1793 C70.4869,47.1383 70.4939,47.0983 70.4989,47.0573 C70.1109,47.8773 69.6609,48.8313 69.1429,49.9393 C68.4029,51.5253 67.4449,53.4653 66.2709,55.7633 C65.9299,56.4383 65.5329,56.8973 65.0829,57.1383 C64.6309,57.3763 64.1329,57.4973 63.5889,57.4973 C62.8909,57.4973 62.3289,57.3523 61.9039,57.0623 C61.4779,56.7743 61.1499,56.3863 60.9209,55.8983 C60.8959,55.8453 60.8809,55.7833 60.8579,55.7283 C60.5989,55.6563 60.3649,55.5543 60.1659,55.4183 C59.7409,55.1313 59.4129,54.7433 59.1829,54.2543 C58.9529,53.7673 58.7989,53.2133 58.7239,52.5943 C58.6479,51.9753 58.6089,51.3353 58.6089,50.6733 C58.6089,49.9703 58.6509,49.1403 58.7359,48.1803 C58.8209,47.2203 58.9309,46.2093 59.0689,45.1463 C59.2049,44.0853 59.4049,42.8723 59.6679,41.5093 C59.6899,41.3983 59.7069,41.3063 59.7279,41.1973 C59.4419,40.9283 59.1509,40.6513 58.8559,40.3653 C58.3089,39.8813 57.7659,39.4293 57.2309,39.0483 C56.3789,38.4443 55.6479,37.9373 55.0359,37.5293 L54.8319,37.8103 C55.3239,38.7973 55.6939,39.8403 55.9419,40.9373 C56.1879,42.0363 56.3129,43.2743 56.3129,44.6543 C56.3129,45.6583 56.2009,46.6703 55.9789,47.6913 C55.7579,48.7133 55.4389,49.7003 55.0219,50.6533 C54.6059,51.6073 54.0939,52.5003 53.4909,53.3353 C52.8859,54.1683 52.1959,54.8923 51.4219,55.5053 C50.6469,56.1193 49.7999,56.6033 48.8809,56.9613 C47.9619,57.3193 46.9829,57.4973 45.9449,57.4973 C44.4469,57.4973 43.1659,57.1703 42.1029,56.5143 C41.2599,55.9943 40.5429,55.3463 39.9399,54.5753 C39.0699,53.9633 38.3329,53.2133 37.7479,52.3033 C37.0659,51.2493 36.5679,50.0563 36.2529,48.7293 C35.9379,47.4013 35.7819,46.0563 35.7819,44.6953 C35.7819,42.4483 36.0619,40.5113 36.6239,38.8853 C37.1859,37.2613 37.9889,35.8463 39.0359,34.6483 C40.0839,33.4473 41.3639,32.5023 42.8799,31.8133 C44.3939,31.1243 46.0959,30.7793 47.9859,30.7793 C49.6039,30.7793 51.1189,31.0293 52.5319,31.5323 C53.9439,32.0353 55.2679,32.7063 56.5019,33.5493 C57.4879,34.2213 58.4149,35.0373 59.2909,35.9863 C59.5129,36.2273 59.7329,36.4703 59.9489,36.7283 C60.1309,36.9463 60.2979,37.1523 60.4759,37.3673 C60.4929,37.2803 60.5109,37.2003 60.5279,37.1143 C60.6699,36.4243 60.8129,35.7623 60.9579,35.1613 C61.1619,34.3213 61.3489,33.6333 61.5199,33.1003 C61.6899,32.5493 61.8519,32.1123 62.0049,31.7853 C62.1589,31.4603 62.3319,31.2063 62.5279,31.0263 C62.7229,30.8463 62.9569,30.7243 63.2299,30.6653 C63.5019,30.6043 63.8519,30.5743 64.2779,30.5743 C64.9239,30.5743 65.4299,30.5953 65.7969,30.6393 C66.1629,30.6823 66.4349,30.7853 66.6129,30.9483 C66.7919,31.1103 66.8979,31.3473 66.9339,31.6573 C66.9509,31.8193 66.9629,32.0173 66.9719,32.2413 C67.1799,32.2513 67.3769,32.2633 67.5349,32.2823 C67.9009,32.3263 68.1719,32.4293 68.3509,32.5923 C68.5299,32.7543 68.6359,32.9903 68.6709,33.3003 C68.7039,33.6103 68.7209,34.0313 68.7209,34.5633 C68.7209,34.8553 68.7089,35.1893 68.6839,35.5693 C68.6579,35.9463 68.6199,36.3513 68.5669,36.7793 C68.5549,36.9543 68.5249,37.1343 68.5049,37.3113 C68.8589,36.7103 69.2239,36.0973 69.6149,35.4583 C70.1759,34.5393 70.7109,33.7273 71.2229,33.0233 C71.7169,32.3183 72.2389,31.7353 72.7919,31.2703 C73.3449,30.8063 74.0049,30.5743 74.7709,30.5743 C75.4859,30.5743 76.0989,30.7853 76.6099,31.2063 C76.9589,31.4933 77.1789,31.8703 77.2899,32.3233 C77.6789,32.4233 78.0349,32.5923 78.3479,32.8503 C78.8579,33.2703 79.1139,33.8683 79.1139,34.6403 C79.1139,35.3113 79.0719,35.9463 78.9859,36.5473 C78.9709,36.6583 78.9569,36.7553 78.9419,36.8583 C79.2249,36.4073 79.5149,35.9453 79.8149,35.4713 C80.4009,34.5443 80.9499,33.7273 81.4609,33.0233 C81.9549,32.3353 82.4489,31.7553 82.9419,31.2833 C83.4359,30.8113 84.0409,30.5743 84.7549,30.5743 C85.5559,30.5743 86.2319,30.7853 86.7859,31.2063 C87.1739,31.5023 87.4189,31.8903 87.5349,32.3613 C87.8979,32.4653 88.2299,32.6263 88.5239,32.8503 C89.0759,33.2703 89.3539,33.8683 89.3539,34.6403 C89.3539,35.8263 89.2929,36.9523 89.1739,38.0173 C89.0549,39.0813 88.8749,40.2583 88.6379,41.5483 C88.3989,42.8373 88.2219,44.0103 88.1009,45.0663 C87.9819,46.1223 87.9229,47.2443 87.9229,48.4283 C87.9229,48.9593 87.9669,49.4273 88.0439,49.8463 C88.2049,49.8073 88.3679,49.7643 88.5349,49.6973 C88.9259,49.5423 89.3249,49.3463 89.7349,49.1053 C90.1439,48.8653 90.5429,48.5853 90.9349,48.2673 C91.0149,48.2033 91.0839,48.1323 91.1619,48.0673 C90.9419,46.9543 90.8069,45.8313 90.8069,44.6953 C90.8069,42.4483 91.0879,40.5113 91.6489,38.8853 C92.2109,37.2613 93.0149,35.8463 94.0609,34.6483 C95.1089,33.4473 96.3899,32.5023 97.9049,31.8133 C99.4199,31.1243 101.1219,30.7793 103.0119,30.7793 C106.2139,30.7793 109.2679,32.0503 111.9469,33.7413 C112.9449,34.3713 113.8929,35.0783 114.7789,35.8573 C114.9569,36.0143 115.8629,36.8113 116.4519,37.4483 C116.7779,37.8013 117.0099,38.1083 116.9599,38.2253 C116.9599,38.2243 116.9979,38.1383 117.0609,37.9903 C118.0989,35.5983 126.9509,15.2003 126.9509,15.2003 C127.6309,13.7703 128.1969,12.8303 128.6519,12.3753 C129.0819,11.9453 129.6949,11.7293 130.4879,11.7293 C131.2149,11.7293 131.8389,11.9573 132.3609,12.4103 C132.6729,12.6943 132.8739,13.0543 132.9809,13.4763 C133.3919,13.5823 133.7679,13.7673 134.0989,14.0543 C134.5729,14.4853 134.8129,15.0753 134.8129,15.8233 C134.8129,16.3673 134.5069,17.2853 133.8929,18.5793 L126.5129,35.7113 C127.5409,35.1303 128.7019,34.4883 129.9979,33.7043 C132.7199,32.0703 135.5579,29.2563 137.3479,29.4023 C137.7759,29.4373 138.1759,29.5173 138.5369,29.7443 C138.8789,29.9703 139.1849,30.2893 139.4559,30.6973 C139.5329,30.8323 139.5809,30.9813 139.6289,31.1293 C139.8539,31.1813 140.0719,31.2603 140.2759,31.3873 C140.6159,31.6133 140.9219,31.9323 141.1929,32.3403 C141.3999,32.7023 141.4999,33.1103 141.4999,33.5653 C141.4999,34.1543 141.3529,34.5973 141.0579,34.8923 C140.6959,35.2543 140.0149,35.7083 139.0159,36.2523 L134.9699,38.9213 L132.0439,40.6893 C131.3169,41.0973 130.2179,41.8583 128.7439,42.9703 L128.4379,43.1733 C128.6199,45.4413 129.0619,47.5513 129.7659,49.5023 C129.9189,49.9183 130.0629,50.2653 130.2029,50.5723 C131.3399,50.5293 133.7169,49.2763 137.3479,46.8033 C137.6749,46.5863 137.9579,46.4003 138.2239,46.2263 C138.3089,45.7203 138.3979,45.2123 138.5359,44.6953 C138.8959,43.3563 139.4519,41.9053 140.2059,40.3453 C140.9589,38.7843 141.7689,37.4363 142.6329,36.3003 C143.4979,35.1633 144.4429,34.1703 145.4719,33.3233 C146.4979,32.4753 147.5829,31.8003 148.7199,31.2993 C149.8599,30.8003 151.0199,30.5493 152.2009,30.5493 C152.5949,30.5493 152.9039,30.6263 153.1269,30.7813 C153.3489,30.9363 153.5329,31.1123 153.6779,31.3113 C153.8239,31.5073 153.9639,31.7013 154.1019,31.8913 C154.2389,32.0793 154.4109,32.2173 154.6159,32.3033 C154.8209,32.3893 155.0319,32.4453 155.2449,32.4723 C155.4589,32.4973 155.6769,32.5093 155.9009,32.5093 C156.0879,32.5093 156.2819,32.5053 156.4779,32.4973 C156.6749,32.4873 156.8669,32.4843 157.0559,32.4843 C157.3129,32.4843 157.5519,32.5093 157.7749,32.5613 C157.9979,32.6133 158.1939,32.7253 158.3659,32.8973 C158.5369,33.0693 158.6679,33.3103 158.7629,33.6193 C158.8059,33.7643 158.8379,33.9393 158.8609,34.1343 C159.0899,34.1383 159.3109,34.1583 159.5129,34.2053 C159.7359,34.2573 159.9329,34.3693 160.1029,34.5413 C160.2749,34.7133 160.4059,34.9543 160.4999,35.2633 C160.5929,35.5723 160.6409,35.9953 160.6409,36.5273 C160.6409,37.3413 160.5559,38.2433 160.3839,39.2363 C160.2139,40.2283 160.0199,41.2443 159.7989,42.2853 C159.5809,43.3253 159.3279,44.5123 159.0479,45.8443 C158.7669,47.1753 158.6259,48.2993 158.6259,49.2113 C158.6259,49.4873 158.6389,49.7333 158.6579,49.9663 C158.8229,49.9223 158.9909,49.8693 159.1619,49.7913 C159.5539,49.6143 159.9489,49.3813 160.3489,49.0953 C160.7489,48.8083 161.1499,48.4843 161.5499,48.1213 C161.9489,47.7573 162.3279,47.3823 162.6859,46.9943 C163.5189,46.0833 164.3619,45.0533 165.2139,43.9063 L165.8739,46.9333 C166.2319,46.4903 166.5899,46.0353 166.9509,45.5503 L168.1779,51.1683 C167.7859,51.7203 167.2609,52.3663 166.6069,53.1063 L166.6069,53.1063 Z M165.3949,75.1473 L160.8179,70.1363 L157.2059,70.1363 L157.2059,75.1473 L156.1849,75.1473 L156.1849,61.9093 L162.0089,61.9093 C164.8839,61.9093 166.3399,63.9713 166.3589,66.0323 C166.3779,68.1883 164.9589,70.0793 162.0659,70.0793 L166.7379,75.1473 L165.3949,75.1473 Z M153.9149,75.1473 L144.5529,75.1473 L144.5529,61.9093 L153.6869,61.9093 L153.6869,62.8733 L145.5559,62.8733 L145.5559,68.0173 L153.3079,68.0173 L153.3079,68.9443 L145.5559,68.9443 L145.5559,74.1643 L153.9149,74.1643 L153.9149,75.1473 Z M142.6219,62.8363 L137.8379,62.8363 L137.8379,75.1473 L136.8169,75.1473 L136.8169,62.8363 L132.0329,62.8363 L132.0329,61.9283 L142.6219,61.9283 L142.6219,62.8363 Z M130.1019,75.1473 L129.7049,75.1473 L120.7779,64.2163 L120.7779,75.1473 L119.7579,75.1473 L119.7579,61.9093 L120.1919,61.9093 L129.0999,72.8593 L129.0999,61.9093 L130.1019,61.9093 L130.1019,75.1473 Z M117.0889,75.1473 L107.7279,75.1473 L107.7279,61.9093 L116.8629,61.9093 L116.8629,62.8733 L108.7309,62.8733 L108.7309,68.0173 L116.4839,68.0173 L116.4839,68.9443 L108.7309,68.9443 L108.7309,74.1643 L117.0889,74.1643 L117.0889,75.1473 Z M100.5219,74.3533 C102.0159,74.3533 103.5289,73.7863 104.6639,72.6703 L105.3449,73.3133 C104.0209,74.6363 102.2619,75.2983 100.5219,75.2983 C96.0599,75.2983 93.7319,72.1783 93.7139,68.6043 C93.6759,65.0673 95.9829,61.7583 100.5219,61.7583 C102.2619,61.7583 104.0209,62.4203 105.3449,63.7433 L104.6449,64.3493 C103.5099,63.2143 102.0159,62.6663 100.5219,62.6663 C96.6639,62.6663 94.6779,65.3893 94.6969,68.5663 C94.7349,71.6673 96.7019,74.3533 100.5219,74.3533 L100.5219,74.3533 Z M86.2609,75.1473 L85.8629,75.1473 L76.9369,64.2163 L76.9369,75.1473 L75.9159,75.1473 L75.9159,61.9093 L76.3499,61.9093 L85.2579,72.8593 L85.2579,61.9093 L86.2609,61.9093 L86.2609,75.1473 Z M69.4459,75.1853 L68.3499,75.1853 L66.2509,68.9823 L64.5859,63.7433 L62.9219,68.9443 L60.8039,75.1853 L59.7069,75.1853 L55.0729,61.9093 L56.1519,61.9093 L60.2359,74.0123 L64.3019,61.9093 L64.8699,61.9093 L68.9169,74.0123 L73.0209,61.9093 L74.1169,61.9093 L69.4459,75.1853 Z M47.6209,75.3743 C43.1769,75.3743 40.9449,72.0083 40.9449,68.5093 C40.9449,64.9543 43.1579,61.7013 47.6209,61.7013 C52.0839,61.7013 54.3159,64.9733 54.2970203,68.5473 C54.2779,72.0273 52.0649,75.3743 47.6209,75.3743 L47.6209,75.3743 Z M39.5819,62.8363 L34.7979,62.8363 L34.7979,75.1473 L33.7759,75.1473 L33.7759,62.8363 L28.9919,62.8363 L28.9919,61.9283 L39.5819,61.9283 L39.5819,62.8363 Z M28.0099,55.2193 C27.8679,55.7883 27.6529,56.3113 27.3599,56.7873 C27.0679,57.2633 26.7409,57.6763 26.3779,58.0283 C26.0149,58.3783 25.6389,58.6503 25.2489,58.8443 C24.8599,59.0343 24.4979,59.1313 24.1619,59.1313 C23.1529,59.1313 22.3229,58.9013 21.6709,58.4423 C21.2639,58.1553 20.9989,57.7473 20.8459,57.2433 C20.5129,57.1303 20.2049,56.9893 19.9329,56.7983 C19.2799,56.3383 18.9539,55.5983 18.9539,54.5763 C18.9539,54.2543 19.0039,53.8963 19.1059,53.5033 C19.4819,52.0003 19.8559,50.4983 20.2299,48.9953 C20.6039,47.4923 20.9969,45.9193 21.4069,44.2763 C21.8169,42.6323 22.3359,40.8993 22.9659,39.0773 C23.5959,37.2573 24.2939,35.2513 25.0599,33.0643 C25.8259,30.8763 26.6559,28.4243 27.5499,25.7063 C28.2739,23.5023 29.0489,21.0873 29.8679,18.4803 C29.7239,18.4933 29.5849,18.5033 29.4409,18.5173 C28.5119,18.6073 27.6109,18.7263 26.7339,18.8783 C25.8559,19.0303 25.0249,19.2213 24.2399,19.4523 C23.4539,19.6843 22.7359,19.9803 22.0859,20.3363 C21.4359,20.6923 20.9219,21.1193 20.5439,21.6183 C20.1649,22.1183 19.9769,22.7053 19.9769,23.3833 C19.9769,23.4193 19.9559,23.6143 19.9159,23.9703 C19.8749,24.3273 19.7349,24.7153 19.4939,25.1333 C19.2529,25.5533 18.8719,25.9363 18.3499,26.2833 C17.8269,26.6313 17.0839,26.8053 16.1199,26.8053 C15.1559,26.8053 14.4089,26.6353 13.8789,26.2933 C13.3469,25.9533 12.9629,25.5773 12.7219,25.1683 C12.6679,25.0783 12.6399,24.9733 12.5949,24.8783 C12.4289,24.8133 12.2779,24.7373 12.1409,24.6503 C11.6089,24.3093 11.2249,23.9333 10.9849,23.5243 C10.6949,23.0473 10.5339,22.5013 10.5019,21.8873 C10.5019,20.4553 10.7989,19.2063 11.3929,18.1403 C11.9869,17.0743 12.8219,16.1673 13.8999,15.4153 C14.9749,14.6663 16.2689,14.0473 17.7759,13.5633 C19.2829,13.0763 20.9419,12.6973 22.7499,12.4223 C24.5589,12.1513 26.4969,11.9673 28.5639,11.8723 C30.6319,11.7783 32.7669,11.7293 34.9739,11.7293 C37.9359,11.7293 41.0379,11.8413 44.2809,12.0613 C47.5239,12.2823 50.9079,12.6853 54.4299,13.2693 C55.2479,13.4283 55.8229,13.7123 56.1539,14.1233 C56.3779,14.3993 56.5199,14.6993 56.5929,15.0203 C57.1829,15.1873 57.6219,15.4323 57.8919,15.7673 C58.2239,16.1763 58.3899,16.6353 58.3899,17.1403 C58.3899,17.5173 58.3139,17.8833 58.1599,18.2403 C58.0069,18.5983 57.8029,18.9293 57.5479,19.2293 C57.2909,19.5313 56.9939,19.7693 56.6539,19.9493 C56.3129,20.1273 55.9549,20.2163 55.5819,20.2163 C54.2699,20.2163 52.9049,20.1333 51.4819,19.9623 C50.0619,19.7933 48.5799,19.6023 47.0399,19.3903 C45.4989,19.1773 43.9119,18.9663 42.2779,18.7533 C40.6429,18.5423 38.9579,18.3823 37.2219,18.2773 C36.9149,20.4913 36.4789,22.6843 35.9139,24.8583 C35.3469,27.0313 34.7669,29.2603 34.1729,31.5413 C33.5789,33.8223 32.9869,36.0983 32.3959,38.3713 C31.8039,40.6443 31.2369,42.8223 30.6939,44.9063 C30.1519,46.9893 29.6519,48.9113 29.1929,50.6743 C28.7339,52.4373 28.3399,53.9513 28.0099,55.2193 L28.0099,55.2193 Z M152.7429,0.1103 L0.7339,0.1103 L0.7339,61.8653 C0.7339,77.3173 13.2599,89.8433 28.7119,89.8433 L180.7209,89.8433 L180.7209,28.0873 C180.7209,12.6353 168.1939,0.1103 152.7429,0.1103 L152.7429,0.1103 Z" id="Fill-340" fill="#214168" mask="url(#mask-2)"></path>
                </g>
                <path d="M47.6208,62.6471 C43.8198,62.6471 41.9288,65.4081 41.9478,68.5281 C41.9658,71.5161 43.8578,74.4291 47.6208,74.4291 C51.4028,74.4291 53.3138,71.5161 53.3138,68.5281 C53.3138,65.4651 51.4218,62.6471 47.6208,62.6471" id="Fill-343" fill="#214168"></path>
                <polygon id="Fill-345" fill="#FFFFFE" points="28.992 62.8364 33.776 62.8364 33.776 75.1474 34.798 75.1474 34.798 62.8364 39.582 62.8364 39.582 61.9284 28.992 61.9284"></polygon>
                <path d="M47.6208,74.429 C43.8578,74.429 41.9658,71.517 41.9478,68.528 C41.9288,65.408 43.8198,62.647 47.6208,62.647 C51.4218,62.647 53.3138,65.465 53.3138,68.528 C53.3138,71.517 51.4028,74.429 47.6208,74.429 M47.6208,61.702 C43.1588,61.702 40.9448,64.954 40.9448,68.509 C40.9448,72.008 43.1768,75.374 47.6208,75.374 C52.0648,75.374 54.2778,72.027 54.2969203,68.548 C54.3158,64.973 52.0848,61.702 47.6208,61.702" id="Fill-347" fill="#FFFFFE"></path>
                <polygon id="Fill-349" fill="#FFFFFE" points="68.917 74.0128 64.87 61.9098 64.302 61.9098 60.236 74.0128 56.151 61.9098 55.073 61.9098 59.707 75.1858 60.803 75.1858 62.922 68.9448 64.586 63.7438 66.25 68.9818 68.35 75.1858 69.446 75.1858 74.117 61.9098 73.021 61.9098"></polygon>
                <polygon id="Fill-351" fill="#FFFFFE" points="85.2579 72.8589 76.3499 61.9089 75.9159 61.9089 75.9159 75.1479 76.9369 75.1479 76.9369 64.2159 85.8629 75.1479 86.2609 75.1479 86.2609 61.9089 85.2579 61.9089"></polygon>
                <path d="M100.5219,62.6661 C102.0159,62.6661 103.5099,63.2141 104.6449,64.3491 L105.3449,63.7431 C104.0209,62.4201 102.2619,61.7581 100.5219,61.7581 C95.9829,61.7581 93.6759,65.0681 93.7139,68.6041 C93.7319,72.1781 96.0599,75.2991 100.5219,75.2991 C102.2619,75.2991 104.0209,74.6361 105.3449,73.3131 L104.6639,72.6701 C103.5289,73.7861 102.0159,74.3531 100.5219,74.3531 C96.7019,74.3531 94.7349,71.6671 94.6969,68.5671 C94.6779,65.3891 96.6639,62.6661 100.5219,62.6661" id="Fill-353" fill="#FFFFFE"></path>
                <polygon id="Fill-355" fill="#FFFFFE" points="108.7304 68.9446 116.4834 68.9446 116.4834 68.0176 108.7304 68.0176 108.7304 62.8736 116.8624 62.8736 116.8624 61.9096 107.7274 61.9096 107.7274 75.1476 117.0894 75.1476 117.0894 74.1636 108.7304 74.1636"></polygon>
                <polygon id="Fill-357" fill="#FFFFFE" points="129.0997 72.8589 120.1917 61.9089 119.7577 61.9089 119.7577 75.1479 120.7787 75.1479 120.7787 64.2159 129.7047 75.1479 130.1027 75.1479 130.1027 61.9089 129.0997 61.9089"></polygon>
                <polygon id="Fill-359" fill="#FFFFFE" points="132.0326 62.8364 136.8166 62.8364 136.8166 75.1474 137.8376 75.1474 137.8376 62.8364 142.6216 62.8364 142.6216 61.9284 132.0326 61.9284"></polygon>
                <polygon id="Fill-361" fill="#FFFFFE" points="145.5558 68.9446 153.3088 68.9446 153.3088 68.0176 145.5558 68.0176 145.5558 62.8736 153.6868 62.8736 153.6868 61.9096 144.5528 61.9096 144.5528 75.1476 153.9148 75.1476 153.9148 74.1636 145.5558 74.1636"></polygon>
                <path d="M157.2056,69.1714 L157.2056,62.8544 L162.0096,62.8544 C164.2026,62.8544 165.2626,64.4624 165.2426,66.0134 C165.2246,67.8664 164.2026,69.1714 161.8956,69.1714 L157.2056,69.1714 Z M166.3586,66.0324 C166.3406,63.9714 164.8836,61.9094 162.0096,61.9094 L156.1846,61.9094 L156.1846,75.1474 L157.2056,75.1474 L157.2056,70.1354 L160.8176,70.1354 L165.3946,75.1474 L166.7376,75.1474 L162.0666,70.0794 C164.9586,70.0794 166.3776,68.1874 166.3586,66.0324 L166.3586,66.0324 Z" id="Fill-363" fill="#FFFFFE"></path>
                <path d="M149.0287,41.043 C148.5337,41.803 148.0497,42.74 147.5727,43.853 C147.0967,44.968 146.7607,45.946 146.5657,46.79 C146.3677,47.633 146.2707,48.427 146.2707,49.169 C146.2707,49.608 146.3007,50.034 146.3607,50.446 C146.3887,50.639 146.4287,50.82 146.4767,50.994 C146.4957,50.995 146.5097,51.002 146.5287,51.002 C147.1577,51.002 147.7307,50.728 148.2417,50.179 C148.7537,49.631 149.1967,48.971 149.5717,48.2 C149.9477,47.429 150.2497,46.633 150.4797,45.809 C150.7097,44.986 150.8587,44.301 150.9277,43.753 L152.3027,37.756 C151.7237,38.087 151.1687,38.497 150.6517,39.019 C150.0627,39.61 149.5217,40.284 149.0287,41.043" id="Fill-365" fill="#214168"></path>
                <path d="M48.9978,37.3974 C48.8158,37.3534 48.6258,37.3254 48.4218,37.3254 C47.7228,37.3254 47.0598,37.6234 46.4298,38.2184 C45.7998,38.8154 45.2478,39.5764 44.7708,40.5044 C44.2928,41.4324 43.9198,42.4574 43.6478,43.5814 C43.3738,44.7044 43.2378,45.9724 43.2378,47.3864 C43.2378,48.1014 43.3058,48.7734 43.4428,49.4024 C43.5478,49.8864 43.7108,50.3074 43.9058,50.6964 C44.2928,50.8484 44.7138,50.9514 45.2038,50.9514 C45.7808,50.9514 46.3428,50.6574 46.8888,50.0704 C47.4328,49.4834 47.9098,48.7424 48.3188,47.8484 C48.7268,46.9554 49.0538,45.8734 49.3018,44.6054 C49.5478,43.3374 49.6718,42.2094 49.6718,41.2224 C49.6718,40.4394 49.6118,39.7124 49.4928,39.0394 C49.3808,38.4124 49.2128,37.8694 48.9978,37.3974" id="Fill-367" fill="#214168"></path>
                <path d="M104.0237,37.3974 C103.8407,37.3534 103.6517,37.3254 103.4477,37.3254 C102.7477,37.3254 102.0847,37.6234 101.4557,38.2184 C100.8257,38.8154 100.2717,39.5764 99.7957,40.5044 C99.3187,41.4324 98.9447,42.4574 98.6727,43.5814 C98.3987,44.7044 98.2627,45.9724 98.2627,47.3864 C98.2627,48.1014 98.3317,48.7734 98.4687,49.4024 C98.5727,49.8864 98.7367,50.3074 98.9317,50.6964 C99.3187,50.8484 99.7397,50.9514 100.2277,50.9514 C100.8067,50.9514 101.3677,50.6574 101.9147,50.0704 C102.4587,49.4834 102.9347,48.7424 103.3437,47.8484 C103.7537,46.9554 104.0797,45.8734 104.3277,44.6054 C104.5727,43.3374 104.6957,42.2094 104.6957,41.2224 C104.6957,40.4394 104.6377,39.7124 104.5187,39.0394 C104.4057,38.4124 104.2377,37.8694 104.0237,37.3974" id="Fill-369" fill="#214168"></path>
                <path d="M27.7034,16.8735 C26.7744,16.9635 25.8724,17.0835 24.9954,17.2345 C24.1184,17.3865 23.2874,17.5775 22.5024,17.8085 C21.7164,18.0415 20.9984,18.3365 20.3484,18.6925 C19.6984,19.0485 19.1844,19.4755 18.8064,19.9745 C18.4264,20.4745 18.2394,21.0615 18.2394,21.7395 C18.2394,21.7755 18.2184,21.9715 18.1784,22.3275 C18.1374,22.6835 17.9974,23.0715 17.7564,23.4895 C17.5154,23.9095 17.1344,24.2925 16.6114,24.6395 C16.0894,24.9885 15.3454,25.1615 14.3824,25.1615 C13.6654,25.1615 13.0714,25.0665 12.5944,24.8785 C12.6404,24.9735 12.6674,25.0785 12.7224,25.1685 C12.9624,25.5775 13.3464,25.9535 13.8784,26.2935 C14.4084,26.6355 15.1554,26.8045 16.1204,26.8045 C17.0834,26.8045 17.8264,26.6315 18.3494,26.2835 C18.8724,25.9365 19.2524,25.5535 19.4944,25.1335 C19.7344,24.7155 19.8744,24.3275 19.9154,23.9705 C19.9564,23.6145 19.9764,23.4195 19.9764,23.3835 C19.9764,22.7055 20.1644,22.1185 20.5444,21.6185 C20.9224,21.1195 21.4354,20.6925 22.0864,20.3365 C22.7364,19.9795 23.4544,19.6835 24.2404,19.4525 C25.0254,19.2215 25.8554,19.0305 26.7334,18.8785 C27.6104,18.7265 28.5124,18.6075 29.4414,18.5175 C29.5854,18.5035 29.7244,18.4935 29.8684,18.4795 C30.0604,17.8715 30.2514,17.2635 30.4484,16.6335 C29.5444,16.7045 28.6294,16.7845 27.7034,16.8735" id="Fill-371" fill="#D1EBEF"></path>
                <path d="M30.6941,44.9062 C31.2371,42.8222 31.8031,40.6442 32.3951,38.3712 C32.9871,36.0992 33.5791,33.8222 34.1731,31.5412 C34.7671,29.2602 35.3471,27.0312 35.9131,24.8592 C36.4791,22.6842 36.9151,20.4912 37.2221,18.2772 C38.9581,18.3822 40.6431,18.5422 42.2771,18.7532 C43.9121,18.9662 45.4991,19.1772 47.0401,19.3912 C48.5801,19.6022 50.0611,19.7932 51.4821,19.9622 C52.9051,20.1332 54.2701,20.2162 55.5811,20.2162 C55.9551,20.2162 56.3121,20.1272 56.6541,19.9492 C56.9941,19.7692 57.2911,19.5312 57.5481,19.2292 C57.8021,18.9292 58.0061,18.5982 58.1591,18.2402 C58.3131,17.8832 58.3901,17.5172 58.3901,17.1402 C58.3901,16.6362 58.2231,16.1772 57.8921,15.7672 C57.6221,15.4332 57.1831,15.1872 56.5931,15.0202 C56.6281,15.1752 56.6521,15.3322 56.6521,15.4972 C56.6521,15.8732 56.5761,16.2392 56.4221,16.5972 C56.2691,16.9542 56.0651,17.2852 55.8101,17.5862 C55.5531,17.8872 55.2561,18.1252 54.9161,18.3062 C54.5751,18.4832 54.2171,18.5742 53.8441,18.5742 C52.5321,18.5742 51.1671,18.4902 49.7441,18.3192 C48.3241,18.1492 46.8421,17.9582 45.3021,17.7472 C43.7611,17.5342 42.1751,17.3222 40.5401,17.1092 C38.9051,16.8982 37.2201,16.7392 35.4841,16.6342 C35.1771,18.8472 34.7411,21.0402 34.1761,23.2152 C33.6101,25.3882 33.0291,27.6162 32.4351,29.8972 C31.8421,32.1782 31.2501,34.4552 30.6581,36.7272 C30.0661,39.0002 29.4991,41.1792 28.9561,43.2622 C28.4141,45.3452 27.9151,47.2682 27.4561,49.0322 C26.9971,50.7932 26.6021,52.3072 26.2731,53.5762 C26.1301,54.1442 25.9151,54.6672 25.6221,55.1432 C25.3301,55.6202 25.0031,56.0332 24.6411,56.3852 C24.2771,56.7342 23.9011,57.0072 23.5111,57.2002 C23.1221,57.3902 22.7601,57.4882 22.4251,57.4882 C21.8351,57.4882 21.3141,57.3992 20.8461,57.2432 C20.9991,57.7472 21.2641,58.1552 21.6711,58.4422 C22.3231,58.9012 23.1521,59.1322 24.1611,59.1322 C24.4981,59.1322 24.8601,59.0342 25.2491,58.8442 C25.6391,58.6512 26.0151,58.3782 26.3781,58.0282 C26.7411,57.6762 27.0681,57.2642 27.3601,56.7872 C27.6521,56.3112 27.8681,55.7882 28.0101,55.2192 C28.3401,53.9512 28.7341,52.4372 29.1931,50.6752 C29.6521,48.9112 30.1511,46.9892 30.6941,44.9062" id="Fill-373" fill="#D1EBEF"></path>
                <path d="M132.1557,16.9363 L123.1287,37.8893 C123.9877,37.1613 125.1287,36.4933 126.5127,35.7113 L133.8927,18.5793 C134.5067,17.2853 134.8127,16.3673 134.8127,15.8233 C134.8127,15.0743 134.5727,14.4853 134.0987,14.0533 C133.7677,13.7673 133.3927,13.5823 132.9807,13.4763 C133.0367,13.6943 133.0747,13.9243 133.0747,14.1793 C133.0747,14.7243 132.7697,15.6413 132.1557,16.9363" id="Fill-375" fill="#D1EBEF"></path>
                <path d="M108.3238,35.8856 C108.3218,35.8856 108.1188,36.1666 108.1188,36.1666 C108.6118,37.1546 108.9818,38.1956 109.2298,39.2936 C109.4758,40.3926 109.6008,41.6306 109.6008,43.0106 C109.6008,44.0146 109.4888,45.0266 109.2678,46.0476 C109.0448,47.0706 108.7278,48.0576 108.3098,49.0096 C107.8928,49.9646 107.3818,50.8566 106.7788,51.6906 C106.1738,52.5256 105.4838,53.2486 104.7098,53.8616 C103.9348,54.4756 103.0888,54.9606 102.1688,55.3176 C101.2498,55.6756 100.2698,55.8526 99.2328,55.8526 C97.7338,55.8526 96.4518,55.5256 95.3898,54.8706 C95.2498,54.7836 95.1228,54.6856 94.9898,54.5926 C95.5878,55.3536 96.2948,55.9996 97.1278,56.5146 C98.1908,57.1696 99.4718,57.4966 100.9708,57.4966 C102.0078,57.4966 102.9868,57.3196 103.9068,56.9616 C104.8258,56.6036 105.6728,56.1186 106.4468,55.5056 C107.2218,54.8926 107.9108,54.1686 108.5158,53.3346 C109.1198,52.5006 109.6308,51.6076 110.0478,50.6526 C110.4648,49.7006 110.7828,48.7126 111.0048,47.6916 C111.2258,46.6706 111.3368,45.6586 111.3368,44.6536 C111.3368,43.2746 111.2138,42.0366 110.9668,40.9376 C110.7198,39.8396 110.3498,38.7976 109.8558,37.8096 C109.8558,37.8096 110.0598,37.5296 110.0608,37.5296 C111.4698,37.7056 113.3898,39.0026 114.8988,40.2796 C113.5388,38.7956 110.3818,36.1456 108.3238,35.8856" id="Fill-377" fill="#D1EBEF"></path>
                <path d="M81.4877,40.9355 L81.1047,40.9355 L75.9207,54.0525 C75.4777,54.7625 74.9837,55.2415 74.4397,55.4855 C73.8947,55.7305 73.2657,55.8535 72.5507,55.8535 C72.4247,55.8535 72.3087,55.8445 72.1947,55.8285 C72.2087,55.8665 72.2177,55.9095 72.2317,55.9475 C72.4117,56.4025 72.6617,56.7745 72.9857,57.0625 C73.3097,57.3525 73.7417,57.4965 74.2887,57.4965 C75.0037,57.4965 75.6327,57.3745 76.1777,57.1295 C76.7217,56.8845 77.2157,56.4065 77.6577,55.6965 L81.0697,47.0625 C81.0857,46.2725 81.1137,45.4615 81.1667,44.6075 C81.2447,43.3965 81.3507,42.1725 81.4877,40.9355" id="Fill-379" fill="#D1EBEF"></path>
                <path d="M139.3197,33.2482 C138.9587,33.6112 138.2767,34.0642 137.2787,34.6092 L133.2327,37.2772 L130.3067,39.0462 C129.5797,39.4542 128.4807,40.2142 127.0057,41.3262 L126.6997,41.5292 C126.8807,43.7982 127.3237,45.9072 128.0277,47.8592 C128.4137,48.9002 128.7527,49.6042 129.0477,49.9672 C129.3657,50.3752 129.7277,50.5812 130.1357,50.5812 C130.1557,50.5812 130.1827,50.5732 130.2027,50.5732 C130.0627,50.2652 129.9187,49.9182 129.7657,49.5022 C129.0617,47.5512 128.6197,45.4422 128.4377,43.1732 L128.7437,42.9702 C130.2177,41.8582 131.3177,41.0972 132.0437,40.6892 L134.9697,38.9212 L139.0157,36.2522 C140.0147,35.7082 140.6957,35.2542 141.0577,34.8922 C141.3527,34.5982 141.4997,34.1542 141.4997,33.5652 C141.4997,33.1102 141.3997,32.7022 141.1937,32.3402 C140.9217,31.9322 140.6157,31.6132 140.2757,31.3872 C140.0717,31.2602 139.8537,31.1812 139.6287,31.1292 C139.7087,31.3772 139.7627,31.6372 139.7627,31.9222 C139.7627,32.5112 139.6157,32.9542 139.3197,33.2482" id="Fill-381" fill="#D1EBEF"></path>
                <path d="M92.8269,52.3705 C92.7969,52.3955 92.7659,52.4195 92.7349,52.4455 C91.9939,53.0645 91.2099,53.6265 90.3849,54.1305 C89.5599,54.6345 88.6539,55.0475 87.6669,55.3695 C86.6789,55.6925 85.5639,55.8525 84.3219,55.8525 C84.1059,55.8525 83.9069,55.8205 83.7139,55.7715 C83.9359,56.2375 84.2029,56.6165 84.5149,56.9095 C84.9299,57.3015 85.4459,57.4965 86.0589,57.4965 C87.3019,57.4965 88.4159,57.3365 89.4049,57.0135 C90.3919,56.6915 91.2979,56.2775 92.1229,55.7735 C92.9239,55.2855 93.6829,54.7405 94.4039,54.1415 C93.8019,53.6315 93.2719,53.0465 92.8269,52.3705" id="Fill-383" fill="#D1EBEF"></path>
                <path d="M71.4269,41.0121 L71.0439,41.0121 C70.8389,41.2701 70.6049,41.6551 70.3409,42.1691 C70.0769,42.6831 69.7069,43.4361 69.2299,44.4291 C68.7539,45.4231 68.1469,46.7121 67.4049,48.2961 C66.6649,49.8811 65.7069,51.8211 64.5329,54.1191 C64.1919,54.7951 63.7949,55.2541 63.3449,55.4941 C62.8939,55.7331 62.3949,55.8531 61.8519,55.8531 C61.4809,55.8531 61.1509,55.8091 60.8579,55.7281 C60.8809,55.7831 60.8949,55.8461 60.9209,55.8991 C61.1499,56.3871 61.4779,56.7751 61.9039,57.0621 C62.3289,57.3521 62.8909,57.4971 63.5889,57.4971 C64.1329,57.4971 64.6309,57.3771 65.0829,57.1381 C65.5329,56.8981 65.9299,56.4391 66.2709,55.7631 C67.4439,53.4651 68.4019,51.5251 69.1429,49.9401 C69.6609,48.8311 70.1109,47.8771 70.4989,47.0571 C70.5789,46.5101 70.6579,45.9631 70.7379,45.4231 C70.9239,44.0561 71.1549,42.5851 71.4269,41.0121" id="Fill-385" fill="#D1EBEF"></path>
                <path d="M77.2483,34.9039 C77.1473,35.6769 77.0443,36.2619 76.9413,36.6569 C76.8233,37.1029 76.6863,37.6529 76.5333,38.3059 C76.4143,38.8739 76.2023,39.6889 75.8953,40.7539 C75.8443,40.9269 75.7933,41.1759 75.7433,41.5019 C75.7253,41.6059 75.7163,41.6739 75.7163,41.7089 L75.9973,42.0179 C76.0303,41.9669 76.2703,41.5149 76.7123,40.6649 C77.1543,39.8139 77.6343,38.9689 78.1543,38.1249 C78.4083,37.7139 78.6713,37.2909 78.9423,36.8579 C78.9563,36.7549 78.9713,36.6579 78.9863,36.5479 C79.0713,35.9469 79.1133,35.3109 79.1133,34.6409 C79.1133,33.8679 78.8583,33.2699 78.3473,32.8499 C78.0353,32.5929 77.6793,32.4229 77.2903,32.3229 C77.3413,32.5319 77.3753,32.7529 77.3753,32.9979 C77.3753,33.6679 77.3343,34.3039 77.2483,34.9039" id="Fill-387" fill="#D1EBEF"></path>
                <path d="M87.4364,36.3737 C87.3174,37.4377 87.1374,38.6147 86.9004,39.9047 C86.6614,41.1937 86.4834,42.3667 86.3634,43.4227 C86.2444,44.4787 86.1854,45.6007 86.1854,46.7837 C86.1854,47.7127 86.3044,48.4697 86.5434,49.0537 C86.7804,49.6387 87.0694,49.9287 87.4114,49.9287 C87.6164,49.9287 87.8294,49.8967 88.0434,49.8457 C87.9664,49.4267 87.9224,48.9587 87.9224,48.4277 C87.9224,47.2437 87.9814,46.1217 88.1014,45.0667 C88.2214,44.0097 88.3994,42.8367 88.6374,41.5487 C88.8754,40.2577 89.0544,39.0817 89.1744,38.0177 C89.2924,36.9517 89.3534,35.8267 89.3534,34.6407 C89.3534,33.8687 89.0754,33.2697 88.5234,32.8507 C88.2294,32.6267 87.8984,32.4657 87.5344,32.3607 C87.5834,32.5597 87.6154,32.7677 87.6154,32.9977 C87.6154,34.1837 87.5544,35.3087 87.4364,36.3737" id="Fill-389" fill="#D1EBEF"></path>
                <path d="M66.9462,33.9257 C66.9202,34.3037 66.8822,34.7067 66.8292,35.1357 C66.7972,35.5657 66.7452,36.0047 66.6762,36.4507 C66.5582,37.3107 66.4902,37.7567 66.4722,37.7907 C66.2352,38.9597 65.9872,40.2657 65.7332,41.7087 L66.0132,42.0177 C66.0462,41.9667 66.2722,41.5097 66.6892,40.6517 C67.1062,39.7937 67.5582,38.9417 68.0432,38.1017 C68.1922,37.8437 68.3502,37.5757 68.5052,37.3107 C68.5252,37.1337 68.5542,36.9537 68.5672,36.7787 C68.6202,36.3507 68.6572,35.9467 68.6842,35.5697 C68.7082,35.1897 68.7212,34.8557 68.7212,34.5637 C68.7212,34.0317 68.7042,33.6107 68.6712,33.2997 C68.6352,32.9907 68.5302,32.7547 68.3502,32.5927 C68.1722,32.4297 67.9002,32.3267 67.5342,32.2827 C67.3772,32.2637 67.1802,32.2507 66.9712,32.2407 C66.9792,32.4427 66.9832,32.6667 66.9832,32.9197 C66.9832,33.2117 66.9712,33.5457 66.9462,33.9257" id="Fill-391" fill="#D1EBEF"></path>
                <path d="M55.493,37.4047 C54.641,36.8007 53.91,36.2947 53.298,35.8857 L53.094,36.1667 C53.586,37.1547 53.957,38.1957 54.204,39.2937 C54.45,40.3927 54.575,41.6307 54.575,43.0097 C54.575,44.0147 54.463,45.0267 54.242,46.0477 C54.02,47.0707 53.702,48.0577 53.285,49.0097 C52.868,49.9647 52.356,50.8567 51.754,51.6907 C51.148,52.5257 50.459,53.2487 49.684,53.8617 C48.91,54.4747 48.063,54.9607 47.144,55.3177 C46.224,55.6757 45.246,55.8527 44.207,55.8527 C42.709,55.8527 41.428,55.5257 40.365,54.8707 C40.217,54.7787 40.081,54.6747 39.94,54.5757 C40.543,55.3457 41.26,55.9947 42.103,56.5147 C43.166,57.1697 44.447,57.4967 45.945,57.4967 C46.983,57.4967 47.961,57.3197 48.881,56.9617 C49.8,56.6037 50.647,56.1187 51.422,55.5057 C52.196,54.8927 52.886,54.1687 53.491,53.3347 C54.094,52.5007 54.606,51.6077 55.022,50.6527 C55.439,49.7007 55.758,48.7127 55.979,47.6917 C56.201,46.6707 56.313,45.6587 56.313,44.6537 C56.313,43.2747 56.188,42.0367 55.942,40.9377 C55.694,39.8397 55.324,38.7977 54.832,37.8097 L55.036,37.5297 C55.648,37.9377 56.379,38.4447 57.231,39.0487 C57.766,39.4297 58.309,39.8807 58.855,40.3657 C58.603,40.1227 58.348,39.8737 58.086,39.6137 C57.209,38.7457 56.344,38.0097 55.493,37.4047" id="Fill-393" fill="#D1EBEF"></path>
                <path d="M43.2374,47.3861 C43.2374,45.9731 43.3744,44.7041 43.6474,43.5811 C43.9194,42.4571 44.2934,41.4331 44.7714,40.5051 C45.2474,39.5771 45.8004,38.8151 46.4294,38.2191 C47.0594,37.6231 47.7224,37.3251 48.4224,37.3251 C48.6264,37.3251 48.8154,37.3541 48.9974,37.3971 C48.9824,37.3641 48.9724,37.3231 48.9554,37.2901 C48.7194,36.7961 48.4114,36.4061 48.0364,36.1161 C47.6634,35.8261 47.2114,35.6811 46.6844,35.6811 C45.9854,35.6811 45.3224,35.9791 44.6914,36.5751 C44.0624,37.1711 43.5094,37.9331 43.0334,38.8611 C42.5554,39.7891 42.1824,40.8131 41.9094,41.9371 C41.6364,43.0611 41.4994,44.3291 41.4994,45.7421 C41.4994,46.4571 41.5684,47.1291 41.7054,47.7581 C41.8414,48.3891 42.0524,48.9371 42.3424,49.4061 C42.6314,49.8741 43.0164,50.2481 43.4924,50.5301 C43.6184,50.6041 43.7674,50.6421 43.9064,50.6961 C43.7114,50.3081 43.5484,49.8861 43.4434,49.4021 C43.3054,48.7731 43.2374,48.1011 43.2374,47.3861" id="Fill-395" fill="#D1EBEF"></path>
                <path d="M98.2632,47.3861 C98.2632,45.9731 98.3982,44.7041 98.6722,43.5811 C98.9452,42.4571 99.3192,41.4331 99.7952,40.5051 C100.2722,39.5771 100.8262,38.8151 101.4552,38.2191 C102.0852,37.6231 102.7482,37.3251 103.4472,37.3251 C103.6512,37.3251 103.8412,37.3541 104.0242,37.3971 C104.0082,37.3641 103.9962,37.3231 103.9822,37.2901 C103.7442,36.7961 103.4372,36.4061 103.0612,36.1161 C102.6882,35.8261 102.2372,35.6811 101.7102,35.6811 C101.0102,35.6811 100.3472,35.9791 99.7172,36.5751 C99.0882,37.1711 98.5342,37.9331 98.0582,38.8611 C97.5802,39.7891 97.2072,40.8131 96.9352,41.9371 C96.6612,43.0611 96.5262,44.3291 96.5262,45.7421 C96.5262,46.4571 96.5942,47.1291 96.7312,47.7581 C96.8672,48.3891 97.0782,48.9371 97.3682,49.4061 C97.6572,49.8741 98.0412,50.2481 98.5172,50.5301 C98.6432,50.6041 98.7932,50.6421 98.9322,50.6961 C98.7372,50.3081 98.5732,49.8861 98.4682,49.4021 C98.3312,48.7731 98.2632,48.1011 98.2632,47.3861" id="Fill-397" fill="#D1EBEF"></path>
                <path d="M150.9182,53.2256 C150.3172,53.7146 149.6602,54.1566 148.9482,54.5536 C148.2372,54.9486 147.4952,55.2726 146.7232,55.5256 C145.9502,55.7786 145.1772,55.9036 144.4062,55.9036 C143.5882,55.9036 142.7922,55.7376 142.0192,55.4016 C141.7362,55.2796 141.4692,55.1316 141.2112,54.9706 C141.3672,55.1896 141.5202,55.4126 141.7002,55.6036 C142.2952,56.2306 142.9802,56.7106 143.7562,57.0456 C144.5302,57.3816 145.3262,57.5476 146.1442,57.5476 C146.9152,57.5476 147.6882,57.4216 148.4612,57.1686 C149.2322,56.9166 149.9742,56.5926 150.6872,56.1976 C151.3972,55.8006 152.0552,55.3586 152.6552,54.8696 C153.0162,54.5756 153.3322,54.2856 153.6252,53.9976 C153.1882,53.3886 152.7902,52.6606 152.4372,51.7846 C152.0242,52.2576 151.5182,52.7376 150.9182,53.2256" id="Fill-399" fill="#D1EBEF"></path>
                <path d="M148.9131,37.3755 C148.3251,37.9665 147.7841,38.6405 147.2911,39.3995 C146.7971,40.1595 146.3111,41.0955 145.8351,42.2095 C145.3591,43.3245 145.0221,44.3035 144.8271,45.1455 C144.6311,45.9905 144.5341,46.7835 144.5341,47.5255 C144.5341,47.9645 144.5631,48.3905 144.6231,48.8025 C144.6831,49.2155 144.7881,49.5845 144.9431,49.9085 C145.0961,50.2335 145.3001,50.4965 145.5561,50.6995 C145.7991,50.8905 146.1101,50.9855 146.4771,50.9945 C146.4291,50.8205 146.3881,50.6395 146.3611,50.4465 C146.3011,50.0335 146.2711,49.6085 146.2711,49.1695 C146.2711,48.4275 146.3681,47.6325 146.5661,46.7895 C146.7611,45.9465 147.0961,44.9685 147.5731,43.8535 C148.0491,42.7395 148.5331,41.8035 149.0291,41.0435 C149.5221,40.2845 150.0631,39.6095 150.6511,39.0195 C151.1691,38.4965 151.7241,38.0865 152.3031,37.7565 L152.8321,35.4515 C152.1341,35.4515 151.4521,35.6255 150.7891,35.9715 C150.1241,36.3175 149.4991,36.7845 148.9131,37.3755" id="Fill-401" fill="#D1EBEF"></path>
                <path d="M165.8738,46.9335 L166.4398,49.5255 C166.0468,50.0775 165.5228,50.7225 164.8698,51.4625 C164.2138,52.2015 163.4778,52.9085 162.6598,53.5785 C161.8428,54.2505 160.9658,54.8195 160.0298,55.2845 C159.0938,55.7495 158.1568,55.9805 157.2228,55.9805 C156.4918,55.9805 155.8488,55.8155 155.2758,55.5165 C155.5458,55.9095 155.8268,56.2625 156.1308,56.5505 C156.8848,57.2665 157.8288,57.6245 158.9598,57.6245 C159.8948,57.6245 160.8318,57.3935 161.7688,56.9275 C162.7028,56.4635 163.5808,55.8945 164.3978,55.2225 C165.2158,54.5525 165.9508,53.8455 166.6068,53.1065 C167.2608,52.3655 167.7858,51.7205 168.1778,51.1685 L166.9508,45.5505 C166.5898,46.0355 166.2318,46.4895 165.8738,46.9335" id="Fill-403" fill="#D1EBEF"></path>
                <path d="M118.943,47.0428 L118.84,47.1438 L116.153,52.8598 C115.518,54.2198 114.963,55.1378 114.485,55.6158 C114.011,56.0908 113.386,56.3298 112.615,56.3298 C112.349,56.3298 112.107,56.2888 111.876,56.2278 C111.991,56.6348 112.196,56.9828 112.515,57.2588 C112.992,57.7348 113.604,57.9728 114.353,57.9728 C115.123,57.9728 115.748,57.7348 116.224,57.2588 C116.7,56.7818 117.255,55.8638 117.891,54.5038 L120.579,48.7878 L120.68,48.6858 C121.204,48.2778 121.706,47.9058 122.187,47.5638 C122.028,46.7518 121.883,45.9148 121.768,45.0338 C120.904,45.5778 119.963,46.2478 118.943,47.0428" id="Fill-405" fill="#D1EBEF"></path>
                <path d="M138.707,52.0144 C138.298,52.2854 137.86,52.5654 137.383,52.8594 C135.41,54.1074 133.731,54.9914 132.349,55.5134 C131.032,56.0574 129.774,56.3294 128.573,56.3294 C127.606,56.3294 126.786,56.1464 126.101,55.7934 C126.46,56.3584 126.861,56.8124 127.316,57.1234 C128.086,57.6894 129.086,57.9734 130.31,57.9734 C131.511,57.9734 132.769,57.7014 134.086,57.1574 C135.468,56.6354 137.148,55.7514 139.12,54.5034 C139.42,54.3184 139.698,54.1414 139.97,53.9664 C139.968,53.9644 139.966,53.9624 139.963,53.9594 C139.449,53.4194 139.043,52.7574 138.707,52.0144" id="Fill-407" fill="#D1EBEF"></path>
                <path d="M158.6464,37.5931 C158.4764,38.5841 158.2814,39.6001 158.0614,40.6411 C157.8434,41.6811 157.5904,42.8681 157.3104,44.2001 C157.0284,45.5321 156.8884,46.6561 156.8884,47.5671 C156.8884,48.3481 156.9614,48.9571 157.1054,49.3981 C157.2514,49.8381 157.5624,50.0561 158.0384,50.0561 C158.2384,50.0561 158.4454,50.0221 158.6574,49.9661 C158.6384,49.7331 158.6254,49.4871 158.6254,49.2111 C158.6254,48.2991 158.7664,47.1761 159.0484,45.8441 C159.3284,44.5121 159.5804,43.3251 159.7994,42.2851 C160.0204,41.2441 160.2144,40.2281 160.3834,39.2361 C160.5554,38.2431 160.6414,37.3411 160.6414,36.5281 C160.6414,35.9951 160.5924,35.5721 160.5004,35.2631 C160.4064,34.9541 160.2744,34.7131 160.1034,34.5411 C159.9324,34.3691 159.7354,34.2571 159.5124,34.2051 C159.3114,34.1581 159.0904,34.1391 158.8604,34.1341 C158.8884,34.3551 158.9024,34.6011 158.9024,34.8841 C158.9024,35.6971 158.8174,36.5991 158.6464,37.5931" id="Fill-409" fill="#D1EBEF"></path>
                <path d="M23.5114,57.2001 C23.9014,57.0071 24.2774,56.7351 24.6404,56.3851 C25.0034,56.0331 25.3304,55.6201 25.6224,55.1441 C25.9144,54.6671 26.1304,54.1451 26.2724,53.5761 C26.6024,52.3081 26.9964,50.7931 27.4554,49.0321 C27.9144,47.2681 28.4134,45.3451 28.9564,43.2621 C29.4994,41.1791 30.0654,39.0001 30.6574,36.7271 C31.2494,34.4551 31.8414,32.1781 32.4354,29.8981 C33.0294,27.6161 33.6104,25.3881 34.1754,23.2151 C34.7414,21.0401 35.1774,18.8471 35.4844,16.6341 C37.2204,16.7391 38.9054,16.8981 40.5404,17.1091 C42.1744,17.3221 43.7614,17.5341 45.3024,17.7471 C46.8424,17.9581 48.3234,18.1491 49.7444,18.3191 C51.1674,18.4901 52.5324,18.5741 53.8434,18.5741 C54.2174,18.5741 54.5754,18.4841 54.9164,18.3061 C55.2564,18.1261 55.5534,17.8871 55.8104,17.5861 C56.0654,17.2851 56.2694,16.9541 56.4224,16.5971 C56.5764,16.2401 56.6524,15.8731 56.6524,15.4971 C56.6524,15.3321 56.6274,15.1751 56.5934,15.0201 C56.5204,14.7001 56.3784,14.3991 56.1544,14.1231 C55.8224,13.7121 55.2484,13.4281 54.4304,13.2701 C50.9074,12.6851 47.5244,12.2821 44.2814,12.0611 C41.0384,11.8421 37.9364,11.7301 34.9734,11.7301 C32.7674,11.7301 30.6324,11.7781 28.5644,11.8721 C26.4964,11.9671 24.5584,12.1511 22.7504,12.4231 C20.9424,12.6971 19.2834,13.0771 17.7754,13.5631 C16.2684,14.0471 14.9754,14.6661 13.8994,15.4151 C12.8224,16.1681 11.9874,17.0751 11.3924,18.1401 C10.7984,19.2061 10.5014,20.4551 10.5014,21.8871 C10.5334,22.5011 10.6944,23.0471 10.9844,23.5241 C11.2254,23.9331 11.6094,24.3091 12.1414,24.6501 C12.2774,24.7371 12.4284,24.8131 12.5944,24.8791 C13.0714,25.0661 13.6654,25.1611 14.3824,25.1611 C15.3454,25.1611 16.0894,24.9891 16.6114,24.6391 C17.1344,24.2921 17.5154,23.9101 17.7564,23.4901 C17.9974,23.0721 18.1374,22.6841 18.1784,22.3281 C18.2184,21.9721 18.2394,21.7761 18.2394,21.7391 C18.2394,21.0621 18.4264,20.4741 18.8064,19.9741 C19.1844,19.4751 19.6984,19.0481 20.3484,18.6921 C20.9984,18.3361 21.7164,18.0411 22.5024,17.8091 C23.2874,17.5771 24.1184,17.3861 24.9954,17.2341 C25.8724,17.0841 26.7744,16.9641 27.7034,16.8731 C28.6294,16.7841 29.5444,16.7041 30.4484,16.6341 C30.2514,17.2631 30.0604,17.8721 29.8684,18.4801 C29.0484,21.0871 28.2734,23.5031 27.5494,25.7061 C26.6564,28.4241 25.8254,30.8771 25.0594,33.0641 C24.2934,35.2521 23.5964,37.2571 22.9654,39.0781 C22.3354,40.8991 21.8164,42.6321 21.4064,44.2761 C20.9974,45.9191 20.6044,47.4931 20.2304,48.9951 C19.8554,50.4981 19.4814,52.0011 19.1064,53.5031 C19.0044,53.8961 18.9544,54.2541 18.9544,54.5761 C18.9544,55.5981 19.2804,56.3381 19.9334,56.7981 C20.2044,56.9901 20.5134,57.1311 20.8454,57.2431 C21.3134,57.3991 21.8344,57.4881 22.4244,57.4881 C22.7604,57.4881 23.1224,57.3901 23.5114,57.2001" id="Fill-411" fill="#6BBDC5"></path>
                <path d="M94.4723,54.089 C94.4513,54.107 94.4263,54.124 94.4043,54.142 C94.5913,54.3 94.7863,54.451 94.9903,54.593 C94.8433,54.405 94.6983,54.217 94.5643,54.014 C94.5343,54.04 94.5043,54.064 94.4723,54.089" id="Fill-413" fill="#6BBDC5"></path>
                <path d="M152.303,37.7563 L150.927,43.7533 C150.858,44.3013 150.71,44.9863 150.48,45.8083 C150.249,46.6333 149.947,47.4293 149.571,48.2003 C149.197,48.9703 148.754,49.6313 148.242,50.1793 C147.731,50.7283 147.158,51.0013 146.528,51.0013 C146.51,51.0013 146.496,50.9953 146.477,50.9943 C146.11,50.9853 145.799,50.8903 145.556,50.6993 C145.3,50.4963 145.096,50.2333 144.943,49.9093 C144.788,49.5843 144.683,49.2153 144.623,48.8023 C144.563,48.3903 144.534,47.9643 144.534,47.5253 C144.534,46.7833 144.631,45.9903 144.827,45.1463 C145.022,44.3033 145.359,43.3243 145.836,42.2093 C146.311,41.0963 146.797,40.1593 147.291,39.3993 C147.784,38.6403 148.325,37.9663 148.913,37.3753 C149.499,36.7843 150.124,36.3173 150.789,35.9713 C151.452,35.6253 152.134,35.4513 152.832,35.4513 L152.303,37.7563 Z M104.328,44.6053 C104.08,45.8733 103.753,46.9553 103.344,47.8483 C102.934,48.7423 102.459,49.4833 101.914,50.0703 C101.368,50.6573 100.806,50.9513 100.228,50.9513 C99.739,50.9513 99.319,50.8483 98.932,50.6963 C98.793,50.6423 98.643,50.6033 98.517,50.5303 C98.041,50.2483 97.657,49.8743 97.368,49.4063 C97.078,48.9373 96.867,48.3893 96.731,47.7583 C96.594,47.1293 96.526,46.4573 96.526,45.7423 C96.526,44.3293 96.661,43.0613 96.935,41.9373 C97.207,40.8133 97.58,39.7893 98.058,38.8613 C98.535,37.9333 99.088,37.1713 99.717,36.5753 C100.347,35.9793 101.01,35.6813 101.71,35.6813 C102.237,35.6813 102.688,35.8263 103.061,36.1163 C103.437,36.4053 103.744,36.7963 103.982,37.2903 C103.997,37.3223 104.008,37.3633 104.024,37.3973 C104.238,37.8693 104.406,38.4123 104.519,39.0393 C104.637,39.7123 104.696,40.4393 104.696,41.2223 C104.696,42.2093 104.573,43.3373 104.328,44.6053 L104.328,44.6053 Z M49.302,44.6053 C49.054,45.8733 48.727,46.9553 48.319,47.8483 C47.909,48.7423 47.433,49.4833 46.889,50.0703 C46.343,50.6573 45.781,50.9513 45.204,50.9513 C44.714,50.9513 44.293,50.8483 43.906,50.6963 C43.768,50.6423 43.618,50.6033 43.492,50.5303 C43.016,50.2483 42.632,49.8743 42.342,49.4063 C42.053,48.9373 41.841,48.3893 41.706,47.7583 C41.568,47.1293 41.5,46.4573 41.5,45.7423 C41.5,44.3293 41.636,43.0613 41.91,41.9373 C42.182,40.8133 42.555,39.7893 43.033,38.8613 C43.51,37.9333 44.063,37.1713 44.692,36.5753 C45.322,35.9793 45.985,35.6813 46.685,35.6813 C47.212,35.6813 47.664,35.8263 48.037,36.1163 C48.411,36.4053 48.719,36.7963 48.956,37.2903 C48.972,37.3223 48.982,37.3633 48.998,37.3973 C49.213,37.8693 49.381,38.4123 49.493,39.0393 C49.612,39.7123 49.672,40.4393 49.672,41.2223 C49.672,42.2093 49.548,43.3373 49.302,44.6053 L49.302,44.6053 Z M160.03,55.2853 C160.966,54.8193 161.843,54.2503 162.66,53.5793 C163.478,52.9083 164.214,52.2023 164.869,51.4623 C165.523,50.7223 166.047,50.0773 166.44,49.5253 L165.874,46.9333 L165.214,43.9063 C164.362,45.0533 163.519,46.0833 162.686,46.9943 C162.328,47.3823 161.949,47.7573 161.549,48.1213 C161.149,48.4843 160.748,48.8083 160.349,49.0953 C159.949,49.3813 159.554,49.6143 159.162,49.7913 C158.99,49.8693 158.823,49.9223 158.658,49.9663 C158.446,50.0223 158.238,50.0563 158.038,50.0563 C157.563,50.0563 157.251,49.8373 157.106,49.3983 C156.961,48.9573 156.888,48.3483 156.888,47.5673 C156.888,46.6553 157.028,45.5323 157.31,44.2003 C157.591,42.8683 157.843,41.6813 158.062,40.6413 C158.282,39.6003 158.477,38.5843 158.646,37.5933 C158.817,36.5993 158.903,35.6973 158.903,34.8843 C158.903,34.6013 158.888,34.3543 158.861,34.1343 C158.838,33.9393 158.806,33.7643 158.763,33.6193 C158.668,33.3103 158.537,33.0693 158.366,32.8973 C158.194,32.7253 157.998,32.6133 157.774,32.5613 C157.552,32.5093 157.313,32.4843 157.055,32.4843 C156.867,32.4843 156.675,32.4873 156.478,32.4973 C156.281,32.5053 156.088,32.5093 155.901,32.5093 C155.677,32.5093 155.459,32.4973 155.245,32.4723 C155.032,32.4463 154.821,32.3893 154.616,32.3033 C154.411,32.2173 154.239,32.0793 154.102,31.8913 C153.964,31.7013 153.824,31.5083 153.678,31.3113 C153.533,31.1123 153.349,30.9363 153.126,30.7813 C152.904,30.6263 152.595,30.5493 152.201,30.5493 C151.02,30.5493 149.86,30.8003 148.72,31.2993 C147.583,31.8003 146.498,32.4753 145.472,33.3233 C144.443,34.1703 143.498,35.1633 142.633,36.3003 C141.769,37.4363 140.959,38.7843 140.206,40.3453 C139.452,41.9053 138.896,43.3563 138.535,44.6953 C138.397,45.2123 138.309,45.7203 138.224,46.2273 C137.958,46.4003 137.675,46.5863 137.348,46.8033 C133.717,49.2773 131.34,50.5293 130.203,50.5723 C130.182,50.5723 130.155,50.5813 130.136,50.5813 C129.727,50.5813 129.365,50.3753 129.047,49.9673 C128.753,49.6043 128.413,48.9003 128.028,47.8593 C127.324,45.9073 126.881,43.7983 126.7,41.5293 L127.006,41.3263 C128.48,40.2143 129.58,39.4543 130.306,39.0463 L133.233,37.2773 L137.278,34.6093 C138.277,34.0643 138.959,33.6113 139.32,33.2483 C139.615,32.9543 139.763,32.5113 139.763,31.9223 C139.763,31.6373 139.709,31.3773 139.628,31.1293 C139.581,30.9813 139.533,30.8323 139.456,30.6973 C139.184,30.2893 138.879,29.9703 138.537,29.7443 C138.175,29.5173 137.776,29.4373 137.348,29.4023 C135.558,29.2563 132.72,32.0703 129.998,33.7043 C128.701,34.4883 127.541,35.1303 126.513,35.7113 C125.129,36.4933 123.987,37.1613 123.128,37.8893 L132.156,16.9363 C132.769,15.6413 133.075,14.7243 133.075,14.1793 C133.075,13.9243 133.037,13.6943 132.981,13.4763 C132.874,13.0553 132.673,12.6943 132.361,12.4103 C131.839,11.9573 131.215,11.7293 130.488,11.7293 C129.695,11.7293 129.082,11.9453 128.652,12.3753 C128.197,12.8303 127.631,13.7703 126.951,15.2003 C126.951,15.2003 118.099,35.5983 117.061,37.9903 C116.998,38.1383 116.96,38.2243 116.959,38.2253 C117.01,38.1083 116.778,37.8013 116.452,37.4483 C115.863,36.8113 114.957,36.0143 114.779,35.8573 C113.893,35.0783 112.945,34.3713 111.947,33.7423 C109.268,32.0503 106.214,30.7793 103.012,30.7793 C101.121,30.7793 99.42,31.1243 97.905,31.8133 C96.39,32.5023 95.109,33.4473 94.061,34.6483 C93.014,35.8463 92.211,37.2613 91.649,38.8853 C91.087,40.5113 90.807,42.4483 90.807,44.6953 C90.807,45.8313 90.942,46.9543 91.162,48.0673 C91.084,48.1323 91.015,48.2033 90.935,48.2673 C90.543,48.5853 90.144,48.8653 89.735,49.1053 C89.325,49.3463 88.925,49.5423 88.535,49.6973 C88.368,49.7643 88.205,49.8073 88.044,49.8463 C87.829,49.8973 87.617,49.9293 87.412,49.9293 C87.069,49.9293 86.781,49.6383 86.543,49.0533 C86.304,48.4703 86.185,47.7133 86.185,46.7843 C86.185,45.6003 86.244,44.4783 86.364,43.4223 C86.484,42.3663 86.661,41.1933 86.9,39.9043 C87.138,38.6153 87.317,37.4373 87.436,36.3733 C87.555,35.3083 87.616,34.1833 87.616,32.9973 C87.616,32.7683 87.583,32.5593 87.535,32.3613 C87.419,31.8903 87.174,31.5023 86.786,31.2063 C86.232,30.7853 85.556,30.5743 84.755,30.5743 C84.041,30.5743 83.436,30.8113 82.942,31.2833 C82.448,31.7553 81.955,32.3353 81.461,33.0233 C80.95,33.7273 80.401,34.5443 79.815,35.4713 C79.515,35.9453 79.224,36.4073 78.942,36.8583 C78.672,37.2903 78.408,37.7133 78.154,38.1253 C77.634,38.9683 77.154,39.8133 76.713,40.6653 C76.27,41.5143 76.031,41.9663 75.997,42.0173 L75.716,41.7083 C75.716,41.6743 75.725,41.6063 75.743,41.5023 C75.793,41.1763 75.844,40.9263 75.895,40.7543 C76.202,39.6883 76.414,38.8733 76.533,38.3063 C76.686,37.6533 76.823,37.1033 76.941,36.6573 C77.044,36.2613 77.147,35.6773 77.248,34.9043 C77.334,34.3033 77.376,33.6683 77.376,32.9973 C77.376,32.7523 77.341,32.5323 77.29,32.3233 C77.179,31.8703 76.959,31.4933 76.61,31.2063 C76.099,30.7853 75.486,30.5743 74.771,30.5743 C74.005,30.5743 73.345,30.8063 72.792,31.2703 C72.239,31.7353 71.716,32.3183 71.223,33.0233 C70.711,33.7273 70.176,34.5393 69.615,35.4583 C69.224,36.0973 68.859,36.7103 68.505,37.3113 C68.35,37.5763 68.192,37.8433 68.044,38.1013 C67.558,38.9423 67.106,39.7933 66.689,40.6513 C66.272,41.5103 66.046,41.9663 66.014,42.0173 L65.733,41.7083 C65.987,40.2653 66.235,38.9593 66.473,37.7913 C66.49,37.7563 66.558,37.3113 66.677,36.4503 C66.745,36.0053 66.797,35.5663 66.83,35.1363 C66.882,34.7073 66.92,34.3033 66.946,33.9253 C66.971,33.5463 66.983,33.2113 66.983,32.9193 C66.983,32.6673 66.979,32.4433 66.972,32.2413 C66.963,32.0173 66.951,31.8193 66.933,31.6573 C66.898,31.3473 66.792,31.1103 66.613,30.9483 C66.435,30.7853 66.163,30.6823 65.797,30.6393 C65.43,30.5953 64.923,30.5743 64.278,30.5743 C63.852,30.5743 63.502,30.6043 63.229,30.6653 C62.957,30.7243 62.723,30.8463 62.527,31.0263 C62.332,31.2063 62.159,31.4603 62.005,31.7853 C61.852,32.1123 61.69,32.5493 61.52,33.1003 C61.349,33.6333 61.162,34.3213 60.958,35.1613 C60.812,35.7623 60.669,36.4243 60.528,37.1143 C60.511,37.2003 60.493,37.2813 60.475,37.3673 C60.298,37.1523 60.13,36.9463 59.949,36.7283 C59.733,36.4703 59.513,36.2273 59.291,35.9863 C58.415,35.0373 57.487,34.2213 56.502,33.5493 C55.268,32.7063 53.944,32.0353 52.532,31.5323 C51.119,31.0293 49.603,30.7793 47.986,30.7793 C46.096,30.7793 44.394,31.1243 42.879,31.8133 C41.364,32.5023 40.084,33.4473 39.036,34.6483 C37.989,35.8463 37.186,37.2613 36.624,38.8853 C36.062,40.5113 35.781,42.4483 35.781,44.6953 C35.781,46.0563 35.938,47.4013 36.253,48.7293 C36.567,50.0563 37.066,51.2493 37.748,52.3033 C38.333,53.2133 39.07,53.9633 39.94,54.5753 C40.081,54.6743 40.217,54.7783 40.365,54.8703 C41.428,55.5263 42.709,55.8533 44.207,55.8533 C45.246,55.8533 46.224,55.6753 47.144,55.3173 C48.062,54.9603 48.909,54.4753 49.684,53.8613 C50.459,53.2483 51.148,52.5253 51.754,51.6913 C52.356,50.8573 52.868,49.9643 53.285,49.0103 C53.702,48.0573 54.02,47.0703 54.242,46.0473 C54.463,45.0263 54.575,44.0143 54.575,43.0103 C54.575,41.6303 54.45,40.3923 54.204,39.2933 C53.957,38.1963 53.586,37.1543 53.094,36.1673 L53.298,35.8853 C53.91,36.2943 54.641,36.8013 55.493,37.4043 C56.344,38.0093 57.209,38.7453 58.086,39.6143 C58.348,39.8733 58.603,40.1223 58.855,40.3653 C59.151,40.6513 59.442,40.9283 59.728,41.1983 C59.707,41.3063 59.69,41.3983 59.668,41.5093 C59.405,42.8723 59.205,44.0853 59.068,45.1463 C58.931,46.2093 58.821,47.2203 58.736,48.1803 C58.65,49.1403 58.608,49.9703 58.608,50.6733 C58.608,51.3353 58.648,51.9753 58.724,52.5943 C58.799,53.2143 58.953,53.7673 59.183,54.2553 C59.413,54.7433 59.741,55.1313 60.166,55.4183 C60.365,55.5543 60.598,55.6563 60.858,55.7283 C61.151,55.8093 61.481,55.8533 61.852,55.8533 C62.395,55.8533 62.893,55.7333 63.345,55.4943 C63.795,55.2533 64.192,54.7953 64.533,54.1193 C65.707,51.8213 66.665,49.8813 67.405,48.2963 C68.146,46.7123 68.754,45.4233 69.23,44.4293 C69.707,43.4363 70.077,42.6833 70.341,42.1683 C70.604,41.6553 70.839,41.2693 71.043,41.0123 L71.427,41.0123 C71.155,42.5853 70.924,44.0553 70.737,45.4233 C70.658,45.9633 70.579,46.5103 70.499,47.0573 C70.493,47.0983 70.487,47.1383 70.482,47.1793 C70.396,47.7693 70.319,48.3293 70.253,48.8583 C70.183,49.3893 70.133,49.8593 70.099,50.2693 C70.064,50.6803 70.047,50.9963 70.047,51.2193 C70.047,51.7303 70.077,52.2603 70.137,52.8043 C70.196,53.3503 70.316,53.8493 70.494,54.3043 C70.674,54.7583 70.924,55.1313 71.247,55.4183 C71.497,55.6423 71.814,55.7773 72.195,55.8283 C72.308,55.8443 72.425,55.8533 72.551,55.8533 C73.266,55.8533 73.895,55.7303 74.439,55.4853 C74.984,55.2413 75.478,54.7633 75.92,54.0523 L81.104,40.9353 L81.488,40.9353 C81.351,42.1723 81.244,43.3963 81.167,44.6073 C81.113,45.4613 81.086,46.2723 81.07,47.0633 C81.063,47.3923 81.053,47.7293 81.053,48.0483 C81.053,49.1653 81.108,50.1993 81.219,51.1493 C81.329,52.1013 81.512,52.9263 81.768,53.6263 C82.023,54.3273 82.359,54.8733 82.777,55.2653 C83.047,55.5193 83.362,55.6833 83.714,55.7723 C83.906,55.8203 84.106,55.8533 84.322,55.8533 C85.564,55.8533 86.679,55.6933 87.667,55.3693 C88.654,55.0483 89.56,54.6343 90.385,54.1303 C91.21,53.6263 91.994,53.0643 92.735,52.4453 C92.766,52.4193 92.797,52.3963 92.827,52.3703 C93.272,53.0463 93.801,53.6323 94.404,54.1423 C94.427,54.1233 94.451,54.1073 94.472,54.0893 C94.504,54.0633 94.535,54.0403 94.565,54.0143 C94.698,54.2163 94.843,54.4053 94.99,54.5923 C95.123,54.6853 95.25,54.7843 95.39,54.8703 C96.452,55.5263 97.733,55.8533 99.233,55.8533 C100.27,55.8533 101.249,55.6753 102.169,55.3173 C103.088,54.9603 103.935,54.4753 104.71,53.8613 C105.484,53.2483 106.173,52.5253 106.778,51.6913 C107.382,50.8573 107.893,49.9643 108.31,49.0103 C108.728,48.0573 109.045,47.0703 109.268,46.0473 C109.489,45.0263 109.6,44.0143 109.6,43.0103 C109.6,41.6303 109.475,40.3923 109.229,39.2933 C108.982,38.1963 108.612,37.1543 108.119,36.1673 C108.119,36.1673 108.322,35.8853 108.324,35.8853 C110.382,36.1453 113.539,38.7953 114.898,40.2793 C115.349,40.7713 115.602,41.1363 115.553,41.2423 L110.946,51.1243 C110.336,52.4163 110.029,53.3243 110.029,53.8473 C110.029,54.5933 110.28,55.1843 110.777,55.6163 C111.085,55.9223 111.454,56.1193 111.876,56.2283 C112.107,56.2883 112.349,56.3293 112.615,56.3293 C113.386,56.3293 114.011,56.0903 114.485,55.6163 C114.963,55.1383 115.518,54.2203 116.153,52.8593 L118.84,47.1443 L118.943,47.0433 C119.963,46.2473 120.904,45.5783 121.768,45.0343 C121.883,45.9153 122.028,46.7513 122.187,47.5633 C122.557,49.4503 123.035,51.1663 123.638,52.6883 C124.136,54.0043 124.783,54.9353 125.578,55.4793 C125.741,55.5993 125.919,55.6993 126.101,55.7933 C126.786,56.1463 127.606,56.3293 128.573,56.3293 C129.774,56.3293 131.032,56.0573 132.349,55.5133 C133.731,54.9913 135.41,54.1073 137.383,52.8593 C137.86,52.5653 138.298,52.2853 138.707,52.0143 C139.043,52.7573 139.449,53.4193 139.963,53.9593 C139.966,53.9623 139.968,53.9643 139.97,53.9663 C140.346,54.3613 140.761,54.6923 141.211,54.9703 C141.469,55.1313 141.736,55.2793 142.019,55.4013 C142.793,55.7373 143.588,55.9043 144.406,55.9043 C145.177,55.9043 145.95,55.7783 146.723,55.5253 C147.495,55.2733 148.237,54.9483 148.949,54.5533 C149.66,54.1563 150.318,53.7143 150.918,53.2253 C151.518,52.7373 152.024,52.2573 152.437,51.7853 C152.79,52.6613 153.188,53.3883 153.625,53.9983 C153.87,54.3373 154.122,54.6503 154.393,54.9073 C154.661,55.1613 154.961,55.3533 155.276,55.5173 C155.849,55.8153 156.492,55.9803 157.222,55.9803 C158.157,55.9803 159.094,55.7493 160.03,55.2853 L160.03,55.2853 Z" id="Fill-415" fill="#6BBDC5"></path>
            </g>
        </g>
    </g>
</svg>